<svg width="512" height="441" viewBox="0 0 512 441" fill="none" xmlns="http://www.w3.org/2000/svg">
<g clip-path="url(#clip0)">
<path d="M18.7271 4.38939L170.415 261.405L198.955 178.998L222.612 165.121L128.831 4.38939H18.7271Z" stroke="white" stroke-width="6" stroke-miterlimit="10"/>
<path d="M216.079 98.2185L505.585 4.38939L336.773 293.216L282.948 209.983L190.817 293.216L222.613 196.933L386.518 94.1359L252.096 156.956L216.079 98.2185Z" stroke="white" stroke-width="6" stroke-miterlimit="10"/>
<path d="M276.438 254.042L318.022 325.027L264.196 419.682L202.233 318.514L276.438 254.042Z" stroke="white" stroke-width="6" stroke-miterlimit="10"/>
</g>
<g clip-path="url(#clip1)">
<g filter="url(#filter0_d)">
<path d="M41 22.3946L164.624 234.003L190.326 164.948L208.594 154.964L129.847 20L41 22.3946Z" fill="#FFBB00"/>
</g>
<g filter="url(#filter1_d)">
<path d="M234.148 100.047L262.162 150.194L385.057 95.5129L242.977 182.455L209 272.615L292.875 198.711L339.405 276L485 20L234.148 100.047Z" fill="white"/>
</g>
<g filter="url(#filter2_d)">
<path d="M275.371 247L218 297.401L264.769 383.412L310.458 305.666L275.371 247Z" fill="#FFBB00"/>
</g>
</g>
<defs>
<filter id="filter0_d" x="37" y="20" width="175.594" height="222.003" filterUnits="userSpaceOnUse" color-interpolation-filters="sRGB">
<feFlood flood-opacity="0" result="BackgroundImageFix"/>
<feColorMatrix in="SourceAlpha" type="matrix" values="0 0 0 0 0 0 0 0 0 0 0 0 0 0 0 0 0 0 127 0"/>
<feOffset dy="4"/>
<feGaussianBlur stdDeviation="2"/>
<feColorMatrix type="matrix" values="0 0 0 0 0 0 0 0 0 0 0 0 0 0 0 0 0 0 0.5 0"/>
<feBlend mode="normal" in2="BackgroundImageFix" result="effect1_dropShadow"/>
<feBlend mode="normal" in="SourceGraphic" in2="effect1_dropShadow" result="shape"/>
</filter>
<filter id="filter1_d" x="205" y="20" width="284" height="264" filterUnits="userSpaceOnUse" color-interpolation-filters="sRGB">
<feFlood flood-opacity="0" result="BackgroundImageFix"/>
<feColorMatrix in="SourceAlpha" type="matrix" values="0 0 0 0 0 0 0 0 0 0 0 0 0 0 0 0 0 0 127 0"/>
<feOffset dy="4"/>
<feGaussianBlur stdDeviation="2"/>
<feColorMatrix type="matrix" values="0 0 0 0 0 0 0 0 0 0 0 0 0 0 0 0 0 0 0.5 0"/>
<feBlend mode="normal" in2="BackgroundImageFix" result="effect1_dropShadow"/>
<feBlend mode="normal" in="SourceGraphic" in2="effect1_dropShadow" result="shape"/>
</filter>
<filter id="filter2_d" x="214" y="247" width="100.458" height="144.412" filterUnits="userSpaceOnUse" color-interpolation-filters="sRGB">
<feFlood flood-opacity="0" result="BackgroundImageFix"/>
<feColorMatrix in="SourceAlpha" type="matrix" values="0 0 0 0 0 0 0 0 0 0 0 0 0 0 0 0 0 0 127 0"/>
<feOffset dy="4"/>
<feGaussianBlur stdDeviation="2"/>
<feColorMatrix type="matrix" values="0 0 0 0 0 0 0 0 0 0 0 0 0 0 0 0 0 0 0.5 0"/>
<feBlend mode="normal" in2="BackgroundImageFix" result="effect1_dropShadow"/>
<feBlend mode="normal" in="SourceGraphic" in2="effect1_dropShadow" result="shape"/>
</filter>
<clipPath id="clip0">
<rect width="497" height="423.954" fill="white" transform="translate(15)"/>
</clipPath>
<clipPath id="clip1">
<rect width="506" height="441" fill="white"/>
</clipPath>
</defs>
</svg>
