<svg width="35" height="35" viewBox="0 0 35 35" fill="none" xmlns="http://www.w3.org/2000/svg">
<circle cx="17.5" cy="17.5" r="17.5" fill="#FAC841"/>
<g clip-path="url(#clip0)">
<path d="M21.2461 18.3969L29 23.2056V13.3853L21.2461 18.3969Z" fill="#232222"/>
<path d="M6 13.3853V23.2056L13.7539 18.3969L6 13.3853Z" fill="#232222"/>
<path d="M27.5623 10.5254H7.43734C6.72003 10.5254 6.15078 11.05 6.04297 11.7254L17.4998 19.1302L28.9567 11.7254C28.8489 11.05 28.2797 10.5254 27.5623 10.5254Z" fill="#232222"/>
<path d="M19.9293 19.2485L17.8952 20.5627C17.7745 20.6403 17.6379 20.6784 17.4999 20.6784C17.3619 20.6784 17.2253 20.6403 17.1046 20.5627L15.0705 19.2471L6.0459 24.8468C6.15659 25.5166 6.72296 26.037 7.4374 26.037H27.5624C28.2768 26.037 28.8432 25.5166 28.9539 24.8468L19.9293 19.2485Z" fill="#232222"/>
</g>
<defs>
<clipPath id="clip0">
<rect width="23" height="19" fill="white" transform="translate(6 7)"/>
</clipPath>
</defs>
</svg>
