<svg width="35" height="35" viewBox="0 0 35 35" fill="none" xmlns="http://www.w3.org/2000/svg">
<circle cx="17.5" cy="17.5" r="17.5" fill="#FAC841"/>
<g clip-path="url(#clip0)">
<path d="M29.9278 23.1983C29.8598 23.0837 29.439 22.1631 27.4143 20.2711C25.2946 18.2898 25.5793 18.6116 28.1324 15.1858C29.6874 13.0994 30.309 11.8253 30.1145 11.2806C29.9294 10.7614 28.7857 10.8984 28.7857 10.8984L24.983 10.9207C24.983 10.9207 24.7014 10.8825 24.491 11.0083C24.287 11.1325 24.1557 11.4192 24.1557 11.4192C24.1557 11.4192 23.553 13.0341 22.7494 14.407C21.0552 17.304 20.3766 17.4569 20.0998 17.2769C19.456 16.8581 19.6173 15.5919 19.6173 14.6937C19.6173 11.8858 20.0397 10.7153 18.7932 10.4127C18.3788 10.3123 18.075 10.2454 17.0168 10.2343C15.6596 10.2199 14.5096 10.2391 13.8594 10.5592C13.426 10.7726 13.0922 11.2488 13.2963 11.2759C13.5478 11.3093 14.1173 11.4303 14.4194 11.8444C14.8101 12.378 14.7959 13.5788 14.7959 13.5788C14.7959 13.5788 15.0205 16.8835 14.2723 17.2944C13.7582 17.5763 13.0543 17.0014 11.5436 14.372C10.7701 13.0262 10.1848 11.5371 10.1848 11.5371C10.1848 11.5371 10.0725 11.2599 9.87158 11.1118C9.62798 10.9319 9.2863 10.8745 9.2863 10.8745L5.6702 10.8968C5.6702 10.8968 5.12763 10.9127 4.92831 11.15C4.75115 11.3619 4.91408 11.7982 4.91408 11.7982C4.91408 11.7982 7.74558 18.4666 10.9504 21.8287C13.8911 24.9104 17.2288 24.7082 17.2288 24.7082H18.741C18.741 24.7082 19.1982 24.6572 19.4307 24.404C19.6458 24.1715 19.6379 23.7351 19.6379 23.7351C19.6379 23.7351 19.6079 21.6917 20.5506 21.3907C21.4792 21.0945 22.6719 23.3656 23.9358 24.2399C24.8912 24.9009 25.6173 24.7559 25.6173 24.7559L28.9977 24.7082C28.9977 24.7082 30.7662 24.5983 29.9278 23.1983Z" fill="#232323"/>
</g>
<defs>
<clipPath id="clip0">
<rect width="25.3077" height="14.5385" fill="white" transform="translate(4.8457 10.231)"/>
</clipPath>
</defs>
</svg>
