<svg width="15" height="12" viewBox="0 0 15 12" fill="none" xmlns="http://www.w3.org/2000/svg">
<path d="M13.6285 1.02305C12.9717 0.381861 12.0644 0.0614014 10.9061 0.0614014C10.5855 0.0614014 10.2584 0.116975 9.92492 0.228069C9.59136 0.339244 9.28104 0.489233 8.99434 0.677929C8.70725 0.866571 8.46053 1.04372 8.25356 1.20911C8.04683 1.37456 7.85028 1.55038 7.66417 1.73644C7.47798 1.55038 7.28149 1.37456 7.07473 1.20911C6.86784 1.04372 6.62101 0.866679 6.33398 0.677929C6.047 0.489152 5.73674 0.339271 5.40326 0.228069C5.0698 0.117002 4.7427 0.0614014 4.42214 0.0614014C3.26388 0.0614014 2.35649 0.381942 1.69984 1.02305C1.04319 1.66411 0.714844 2.55329 0.714844 3.69068C0.714844 4.03708 0.775695 4.39394 0.897152 4.76082C1.01861 5.12788 1.15702 5.44071 1.31211 5.69916C1.46717 5.95758 1.64301 6.20959 1.8395 6.45519C2.03599 6.70077 2.17959 6.87001 2.26997 6.96307C2.36043 7.05613 2.43155 7.12341 2.48325 7.16481L7.32289 11.8333C7.41599 11.9264 7.52973 11.973 7.66414 11.973C7.79856 11.973 7.91238 11.9264 8.00543 11.8333L12.8374 7.18015C14.0215 5.99642 14.6135 4.83318 14.6135 3.69057C14.6135 2.5531 14.2852 1.664 13.6285 1.02305ZM12.1626 6.45131L7.66417 10.7863L3.15807 6.44349C2.19113 5.47692 1.70775 4.55914 1.70775 3.69057C1.70775 3.27186 1.76333 2.90216 1.87444 2.5817C1.98563 2.26119 2.12781 2.00649 2.30102 1.81779C2.47425 1.62904 2.68492 1.47536 2.93311 1.35636C3.18143 1.23747 3.42443 1.15731 3.66224 1.11597C3.90004 1.07469 4.15336 1.05402 4.42228 1.05402C4.69111 1.05402 4.98072 1.11986 5.29095 1.25173C5.60113 1.38355 5.8868 1.54899 6.14789 1.74801C6.40904 1.94716 6.63266 2.13325 6.81889 2.30638C7.005 2.47968 7.16006 2.63855 7.28418 2.78333C7.37719 2.89711 7.50398 2.95399 7.6642 2.95399C7.82448 2.95399 7.95112 2.89711 8.04425 2.78333C8.16834 2.63855 8.32351 2.4796 8.50962 2.30638C8.69576 2.13325 8.91941 1.94725 9.18045 1.74801C9.44159 1.54899 9.72727 1.38355 10.0376 1.25173C10.3477 1.11989 10.6374 1.05402 10.9063 1.05402C11.1751 1.05402 11.4284 1.07469 11.6663 1.11597C11.9042 1.15729 12.1472 1.23747 12.3954 1.35636C12.6436 1.47533 12.8543 1.62912 13.0275 1.81779C13.2007 2.00649 13.3429 2.26119 13.4541 2.5817C13.5651 2.90216 13.6207 3.27186 13.6207 3.69057C13.6206 4.55914 13.1347 5.47947 12.1626 6.45131Z" fill="#F9C840"/>
</svg>
