<svg width="187" height="168" viewBox="0 0 187 168" fill="none" xmlns="http://www.w3.org/2000/svg">
<g filter="url(#filter0_d)">
<path d="M4.696 160V139.52C4.696 138.368 5.10133 137.387 5.912 136.576C6.72267 135.765 7.704 135.36 8.856 135.36H15.768V138.816H9.336C8.86667 138.816 8.54667 138.901 8.376 139.072C8.22667 139.221 8.152 139.531 8.152 140V141.44H15.768V144.896H8.152V160H4.696ZM22.3553 160C21.2033 160 20.2219 159.595 19.4113 158.784C18.6006 157.973 18.1953 156.992 18.1953 155.84V148.992H33.5873V146.08C33.5873 145.611 33.5126 145.301 33.3633 145.152C33.2139 144.981 32.9046 144.896 32.4353 144.896H18.1953V141.44H32.9153C34.0673 141.44 35.0486 141.845 35.8593 142.656C36.6699 143.467 37.0753 144.448 37.0753 145.6V160H22.3553ZM22.8353 156.544H33.5873V152.224H21.6513V155.36C21.6513 155.829 21.7259 156.149 21.8753 156.32C22.0459 156.469 22.3659 156.544 22.8353 156.544ZM40.0718 160V141.44H54.7917C55.9438 141.44 56.9251 141.845 57.7358 142.656C58.5464 143.467 58.9518 144.448 58.9518 145.6V160H55.4958V146.08C55.4958 145.611 55.4104 145.301 55.2397 145.152C55.0904 144.981 54.7811 144.896 54.3118 144.896H44.7118C44.2424 144.896 43.9224 144.981 43.7518 145.152C43.6024 145.301 43.5278 145.611 43.5278 146.08V160H40.0718ZM66.481 160C65.329 160 64.3477 159.595 63.537 158.784C62.7263 157.973 62.321 156.992 62.321 155.84V135.584H65.777V141.44H73.393V144.896H65.777V155.36C65.777 155.829 65.8517 156.149 66.001 156.32C66.1717 156.469 66.4917 156.544 66.961 156.544H73.393V160H66.481ZM80.3865 160C79.2345 160 78.2532 159.595 77.4425 158.784C76.6318 157.973 76.2265 156.992 76.2265 155.84V148.992H91.6185V146.08C91.6185 145.611 91.5438 145.301 91.3945 145.152C91.2452 144.981 90.9358 144.896 90.4665 144.896H76.2265V141.44H90.9465C92.0985 141.44 93.0798 141.845 93.8905 142.656C94.7012 143.467 95.1065 144.448 95.1065 145.6V160H80.3865ZM80.8665 156.544H91.6185V152.224H79.6825V155.36C79.6825 155.829 79.7572 156.149 79.9065 156.32C80.0772 156.469 80.3972 156.544 80.8665 156.544ZM101.79 160C100.638 160 99.6564 159.595 98.8458 158.784C98.0351 157.973 97.6298 156.992 97.6298 155.84V155.36H101.086V155.552C101.086 155.893 101.16 156.149 101.31 156.32C101.48 156.469 101.736 156.544 102.078 156.544H112.062C112.403 156.544 112.648 156.469 112.798 156.32C112.947 156.149 113.022 155.893 113.022 155.552V153.44C113.022 153.099 112.947 152.853 112.798 152.704C112.648 152.533 112.403 152.448 112.062 152.448H101.79C100.638 152.448 99.6564 152.043 98.8458 151.232C98.0351 150.421 97.6298 149.44 97.6298 148.288V145.6C97.6298 144.448 98.0351 143.467 98.8458 142.656C99.6564 141.845 100.638 141.44 101.79 141.44H112.35C113.502 141.44 114.483 141.845 115.294 142.656C116.104 143.467 116.51 144.448 116.51 145.6V146.08H113.022V145.888C113.022 145.547 112.947 145.301 112.798 145.152C112.648 144.981 112.403 144.896 112.062 144.896H102.078C101.736 144.896 101.48 144.981 101.31 145.152C101.16 145.301 101.086 145.547 101.086 145.888V148C101.086 148.341 101.16 148.597 101.31 148.768C101.48 148.917 101.736 148.992 102.078 148.992H112.35C113.502 148.992 114.483 149.397 115.294 150.208C116.104 151.019 116.51 152 116.51 153.152V155.84C116.51 156.992 116.104 157.973 115.294 158.784C114.483 159.595 113.502 160 112.35 160H101.79ZM123.887 160C122.735 160 121.754 159.595 120.943 158.784C120.133 157.973 119.727 156.992 119.727 155.84V135.584H123.183V141.44H130.799V144.896H123.183V155.36C123.183 155.829 123.258 156.149 123.407 156.32C123.578 156.469 123.898 156.544 124.367 156.544H130.799V160H123.887ZM133.383 160V141.44H136.839V160H133.383ZM133.383 138.816V135.36H136.839V138.816H133.383ZM144.23 160C143.078 160 142.096 159.595 141.286 158.784C140.475 157.973 140.07 156.992 140.07 155.84V145.6C140.07 144.448 140.475 143.467 141.286 142.656C142.096 141.845 143.078 141.44 144.23 141.44H158.886V144.896H144.71C144.24 144.896 143.92 144.981 143.75 145.152C143.6 145.301 143.526 145.611 143.526 146.08V155.36C143.526 155.829 143.6 156.149 143.75 156.32C143.92 156.469 144.24 156.544 144.71 156.544H158.95V160H144.23ZM176.112 160V154.144H160.88V150.656L176.112 136.928H179.568V150.656H182.96V154.144H179.568V160H176.112ZM165.936 150.656H176.112V141.984L165.936 150.656Z" fill="url(#paint0_linear)"/>
</g>
<g filter="url(#filter1_d)">
<path d="M65.2804 12.7294C65.2804 12.7294 18.3746 51.5143 8.44867 68.4824C-1.47726 85.4505 21.98 84.845 21.98 84.845L62.5741 84.8494L52.2491 116.182L80.3163 117L92.3432 84.2395L126.621 84.845L135.644 60.6061L100.462 60.0006L113.392 23.6378L150.679 23.3328L160 0H91.444L69.4912 60.3011L35.5114 60.6061L61.9732 32.4246C61.9732 32.4246 68.592 25.4544 65.2804 12.7294Z" fill="url(#paint1_linear)"/>
</g>
<defs>
<filter id="filter0_d" x="0.696289" y="135.36" width="186.264" height="32.64" filterUnits="userSpaceOnUse" color-interpolation-filters="sRGB">
<feFlood flood-opacity="0" result="BackgroundImageFix"/>
<feColorMatrix in="SourceAlpha" type="matrix" values="0 0 0 0 0 0 0 0 0 0 0 0 0 0 0 0 0 0 127 0"/>
<feOffset dy="4"/>
<feGaussianBlur stdDeviation="2"/>
<feColorMatrix type="matrix" values="0 0 0 0 0 0 0 0 0 0 0 0 0 0 0 0 0 0 0.25 0"/>
<feBlend mode="normal" in2="BackgroundImageFix" result="effect1_dropShadow"/>
<feBlend mode="normal" in="SourceGraphic" in2="effect1_dropShadow" result="shape"/>
</filter>
<filter id="filter1_d" x="2" y="0" width="162" height="125" filterUnits="userSpaceOnUse" color-interpolation-filters="sRGB">
<feFlood flood-opacity="0" result="BackgroundImageFix"/>
<feColorMatrix in="SourceAlpha" type="matrix" values="0 0 0 0 0 0 0 0 0 0 0 0 0 0 0 0 0 0 127 0"/>
<feOffset dy="4"/>
<feGaussianBlur stdDeviation="2"/>
<feColorMatrix type="matrix" values="0 0 0 0 0 0 0 0 0 0 0 0 0 0 0 0 0 0 0.25 0"/>
<feBlend mode="normal" in2="BackgroundImageFix" result="effect1_dropShadow"/>
<feBlend mode="normal" in="SourceGraphic" in2="effect1_dropShadow" result="shape"/>
</filter>
<linearGradient id="paint0_linear" x1="94" y1="128" x2="94" y2="159" gradientUnits="userSpaceOnUse">
<stop stop-color="#4F47ED"/>
<stop offset="1" stop-color="#6A2D84"/>
</linearGradient>
<linearGradient id="paint1_linear" x1="131.797" y1="9.90001" x2="53.3284" y2="131.48" gradientUnits="userSpaceOnUse">
<stop stop-color="#4F47ED"/>
<stop offset="0.541667" stop-color="#43286D"/>
<stop offset="1" stop-color="#7D3090"/>
</linearGradient>
</defs>
</svg>
