<svg width="251" height="205" viewBox="0 0 251 205" fill="none" xmlns="http://www.w3.org/2000/svg">
<rect y="115" width="250.367" height="60.5131" rx="7" fill="#3C3C3C"/>
<path d="M30.5938 146.078L29.25 146.016V159H25.0625V131.5H31.9844C33.4219 131.5 34.4948 131.792 35.2031 132.375C35.9115 132.948 36.375 133.755 36.5938 134.797C36.8229 135.828 36.9375 137.182 36.9375 138.859C36.9375 140.526 36.7604 141.797 36.4062 142.672C36.0521 143.547 35.3958 144.135 34.4375 144.438C35.3854 144.604 36.0469 145.245 36.4219 146.359C36.7969 147.474 36.9844 149.797 36.9844 153.328C36.9844 156.849 37.0365 158.74 37.1406 159H32.9531C32.849 158.792 32.7969 155.505 32.7969 149.141C32.7969 147.922 32.651 147.115 32.3594 146.719C32.0677 146.312 31.4792 146.099 30.5938 146.078ZM29.2656 142.766H30.9375C31.4688 142.766 31.8594 142.646 32.1094 142.406C32.3698 142.167 32.5469 141.755 32.6406 141.172C32.7448 140.589 32.7969 139.698 32.7969 138.5V138.328C32.7969 136.839 32.6719 135.865 32.4219 135.406C32.1719 134.948 31.5938 134.719 30.6875 134.719H29.2656V142.766ZM48.8156 146.281C47.5031 146.865 46.6177 147.417 46.1594 147.938C45.701 148.458 45.4719 149.266 45.4719 150.359V152.875C45.4719 153.969 45.5865 154.755 45.8156 155.234C46.0448 155.703 46.4146 155.938 46.925 155.938C47.4458 155.938 47.8677 155.766 48.1906 155.422C48.524 155.068 48.7323 154.672 48.8156 154.234V146.281ZM45.55 159.234C44.0187 159.234 42.925 158.688 42.2687 157.594C41.6125 156.49 41.274 154.906 41.2531 152.844V151.344C41.2531 149.344 41.7948 147.828 42.8781 146.797C43.576 146.12 44.7583 145.464 46.425 144.828C46.7271 144.714 47.1437 144.557 47.675 144.359C48.2167 144.161 48.5969 144.021 48.8156 143.938V141.891C48.8156 140.62 48.7219 139.76 48.5344 139.312C48.3573 138.854 47.9406 138.625 47.2844 138.625C46.6385 138.625 46.2062 138.865 45.9875 139.344C45.7687 139.823 45.6594 140.63 45.6594 141.766V142.812H41.5656V142.109C41.5656 139.891 41.9771 138.198 42.8 137.031C43.6333 135.865 45.1021 135.281 47.2062 135.281C49.3208 135.281 50.8208 135.865 51.7062 137.031C52.6021 138.198 53.05 139.948 53.05 142.281V159H48.8781V156.672C48.6698 157.391 48.2687 158 47.675 158.5C47.0917 158.99 46.3833 159.234 45.55 159.234ZM57.85 159V135.562H61.9906V159H57.85ZM57.8031 133.406V129.812H61.975V133.406H57.8031ZM74.8375 135.281C77.5458 135.281 78.9 137.036 78.9 140.547V159H74.7594V140.797C74.7594 140.12 74.6031 139.589 74.2906 139.203C73.9885 138.818 73.5458 138.625 72.9625 138.625C72.3792 138.625 71.9156 138.875 71.5719 139.375C71.2385 139.875 71.0719 140.547 71.0719 141.391V159H66.9313V135.562H71.0719V138.25C71.2802 137.417 71.7281 136.714 72.4156 136.141C73.1031 135.568 73.9104 135.281 74.8375 135.281ZM87.8094 156.812V159H83.6688V131.266H87.8094V137.25C88.0385 136.667 88.4396 136.193 89.0125 135.828C89.5854 135.464 90.2052 135.281 90.8719 135.281C92.8719 135.281 94.1896 136.177 94.825 137.969C95.2313 139.115 95.4344 140.557 95.4344 142.297V152.219C95.4344 152.24 95.4344 152.26 95.4344 152.281C95.4344 155.667 94.6792 157.812 93.1688 158.719C92.6063 159.062 91.95 159.234 91.2 159.234C91.1792 159.234 91.1531 159.234 91.1219 159.234C89.5281 159.214 88.424 158.406 87.8094 156.812ZM87.8094 151.875C87.8094 153.292 87.9344 154.323 88.1844 154.969C88.4344 155.604 88.9083 155.922 89.6063 155.922C90.3146 155.922 90.7677 155.615 90.9656 155C91.174 154.375 91.2781 153.318 91.2781 151.828V142.234C91.2781 140.37 91.0333 139.25 90.5438 138.875C90.325 138.708 90.0438 138.625 89.7 138.625C89.0229 138.625 88.5385 138.885 88.2469 139.406C87.9552 139.927 87.8094 140.865 87.8094 142.219V151.875ZM105.562 155.938C106.208 155.938 106.646 155.656 106.875 155.094C107.115 154.521 107.234 153.672 107.234 152.547V142.062C107.234 140.917 107.115 140.057 106.875 139.484C106.635 138.911 106.193 138.625 105.547 138.625C104.901 138.625 104.458 138.911 104.219 139.484C103.979 140.047 103.859 140.906 103.859 142.062V152.547C103.859 154.266 104.141 155.318 104.703 155.703C104.932 155.859 105.219 155.938 105.562 155.938ZM105.562 159.281C103.354 159.281 101.823 158.62 100.969 157.297C100.115 155.974 99.6875 154.062 99.6875 151.562V142.797C99.6875 137.786 101.641 135.281 105.547 135.281C109.453 135.281 111.406 137.786 111.406 142.797V151.562C111.406 155.469 110.401 157.87 108.391 158.766C107.62 159.109 106.677 159.281 105.562 159.281ZM126.159 159L123.784 141.391L121.253 159H117.753L114.613 135.562H118.097L119.284 145.453L119.816 150.484H119.909L120.425 145.438L121.816 135.562H125.503L127.034 145.25L127.691 150.484H127.784L128.238 145.266L129.284 135.562H132.753L129.784 159H126.159Z" fill="#30F4A0"/>
<path d="M142.884 159V131.5H152.322V135.141H147.072V142.453H151.947V146.109H147.072V159H142.884ZM161.669 155.938C162.315 155.938 162.752 155.656 162.981 155.094C163.221 154.521 163.341 153.672 163.341 152.547V142.062C163.341 140.917 163.221 140.057 162.981 139.484C162.742 138.911 162.299 138.625 161.653 138.625C161.007 138.625 160.565 138.911 160.325 139.484C160.085 140.047 159.966 140.906 159.966 142.062V152.547C159.966 154.266 160.247 155.318 160.809 155.703C161.039 155.859 161.325 155.938 161.669 155.938ZM161.669 159.281C159.46 159.281 157.929 158.62 157.075 157.297C156.221 155.974 155.794 154.062 155.794 151.562V142.797C155.794 137.786 157.747 135.281 161.653 135.281C165.559 135.281 167.512 137.786 167.512 142.797V151.562C167.512 155.469 166.507 157.87 164.497 158.766C163.726 159.109 162.783 159.281 161.669 159.281ZM180.25 135.281C180.292 135.281 180.312 136.156 180.312 137.906L180.297 138.781C179.464 138.781 178.646 138.922 177.844 139.203C177.042 139.484 176.516 139.885 176.266 140.406V159H172.094V135.562H176.266V138.172C176.536 137.255 177.01 136.547 177.688 136.047C178.375 135.536 179.229 135.281 180.25 135.281ZM189.3 159.281C186.956 159.281 185.368 158.589 184.534 157.203C183.711 155.818 183.3 153.812 183.3 151.188V143.594C183.3 140.188 183.894 137.891 185.081 136.703C186.029 135.755 187.461 135.281 189.378 135.281C191.295 135.281 192.68 135.865 193.534 137.031C194.389 138.188 194.816 139.859 194.816 142.047V144.625H190.816V141.906C190.816 140.479 190.685 139.583 190.425 139.219C190.175 138.854 189.748 138.672 189.144 138.672C188.54 138.672 188.107 138.943 187.847 139.484C187.597 140.026 187.472 140.854 187.472 141.969V152.531C187.472 153.688 187.586 154.536 187.816 155.078C188.055 155.62 188.514 155.891 189.191 155.891C190.118 155.88 190.644 155.229 190.769 153.938C190.8 153.635 190.816 153.281 190.816 152.875C190.816 152.771 190.816 152.661 190.816 152.547V149.766H194.816V152.141C194.816 154.432 194.389 156.198 193.534 157.438C192.68 158.667 191.269 159.281 189.3 159.281ZM204.663 159.281C202.027 159.281 200.329 158.276 199.569 156.266C199.09 154.984 198.85 153.297 198.85 151.203V142.469C198.85 137.677 200.845 135.281 204.834 135.281C206.959 135.281 208.428 135.911 209.241 137.172C210.064 138.432 210.475 140.224 210.475 142.547V147.562H203.022V152.172C203.022 153.797 203.163 154.833 203.444 155.281C203.725 155.719 204.147 155.938 204.709 155.938C205.272 155.938 205.636 155.807 205.803 155.547C206.084 155.089 206.246 154.62 206.288 154.141C206.329 153.661 206.35 153.005 206.35 152.172V150.109H210.444V151.359C210.444 153.484 210.277 155.01 209.944 155.938C209.61 156.865 209.225 157.536 208.788 157.953C207.871 158.839 206.496 159.281 204.663 159.281ZM203.006 145.141H206.35V142.141C206.35 140.859 206.246 139.943 206.038 139.391C205.84 138.828 205.428 138.547 204.803 138.547C204.793 138.547 204.788 138.547 204.788 138.547C203.704 138.547 203.121 139.375 203.038 141.031C203.017 141.344 203.006 141.75 203.006 142.25V145.141ZM214.181 141.031C214.181 137.198 216.025 135.281 219.712 135.281C221.546 135.281 222.884 135.807 223.728 136.859C224.582 137.901 225.009 139.641 225.009 142.078V143.359H221.306V141.812C221.306 140.75 221.186 139.964 220.947 139.453C220.707 138.932 220.306 138.672 219.744 138.672C219.192 138.672 218.78 138.833 218.509 139.156C218.249 139.479 218.119 140.031 218.119 140.812C218.119 142.052 218.671 143.203 219.775 144.266L221.994 146.281C224.275 148.406 225.416 150.745 225.416 153.297C225.416 155.297 224.962 156.797 224.056 157.797C223.15 158.797 221.744 159.297 219.837 159.297C217.931 159.297 216.525 158.755 215.619 157.672C214.712 156.578 214.259 154.828 214.259 152.422V150.906H218.15V152.797C218.15 154.88 218.681 155.922 219.744 155.922C220.306 155.922 220.712 155.74 220.962 155.375C221.212 155 221.337 154.37 221.337 153.484C221.337 151.922 220.619 150.474 219.181 149.141C219.14 149.099 218.801 148.797 218.166 148.234C217.541 147.672 217.176 147.339 217.072 147.234C215.145 145.474 214.181 143.406 214.181 141.031Z" fill="white"/>
<path d="M163.523 19.1702C158.164 23.7895 157.441 31.8733 157.749 35.3378V39.9571L193.317 75.9878C195.704 75.141 200.108 74.0939 206.02 71.1375C213.411 67.4421 215.465 63.694 217.107 61.437C218.955 58.8963 221.264 52.1983 221.957 48.2719C222.813 43.4216 223.25 32.9819 222.881 30.0256C222.419 26.3301 219.185 20.7869 216.645 16.6295C214.804 13.6174 214.874 4.0034 214.797 0.461914C213.18 1.38578 207.406 5.3122 205.789 6.0051C204.173 6.698 201.401 9.00766 192.393 10.3935C185.003 11.3943 168.881 14.5508 163.523 19.1702Z" fill="#029774"/>
<path d="M197.244 35.1065C195.236 37.1152 186.378 42.3086 181.008 45.3285C180 45.8956 179.173 46.7383 178.634 47.762C177.708 49.5227 177.717 51.6301 178.703 53.3584C183.531 61.8206 191.398 74.1464 193.549 71.8301C194.913 70.3617 196.44 66.2438 197.717 62.0281C199.446 56.3187 200.117 50.3349 199.753 44.3805C199.408 38.7305 198.669 33.6815 197.244 35.1065Z" fill="#F71E6C"/>
<path d="M24.2499 60.9751C28.3149 75.7569 41.9573 81.4541 48.2704 82.4549L51.2729 84.0717L55.4303 79.6833C65.7468 64.8245 89.2437 39.2181 89.6133 38.1094C89.9828 37.0008 85.1479 28.3319 84.0701 26.3301C80.6056 20.0941 73.9076 17.5534 68.5954 15.9367C63.2831 14.3199 48.2704 10.6244 39.4936 9.23865C32.4722 8.13001 28.7152 2.61762 27.7144 0C27.7144 1.46279 27.3464 6.09751 28.6398 12.9341C30.2566 21.4799 29.7931 23.0966 24.2499 32.5662C21.3545 37.5126 21.2958 40.2323 21.4797 44.1145C21.6479 47.6647 21.8228 52.1492 24.2499 60.9751Z" fill="#029774"/>
<path d="M51.9676 73.9096C48.6417 68.9208 47.3483 50.2741 47.1174 41.5744C47.0623 39.9114 60.3365 47.9644 66.9804 52.1988C68.9363 53.5027 69.5669 56.0937 68.3529 58.1067C63.1197 66.7839 54.866 78.2571 51.9676 73.9096Z" fill="#F71E6C"/>
<path d="M218.494 115.483C218.494 103.775 216.08 92.1817 211.391 81.3652C206.702 70.5486 199.828 60.7205 191.164 52.4419C182.499 44.1633 172.213 37.5963 160.892 33.116C149.571 28.6356 137.437 26.3296 125.183 26.3296C112.93 26.3296 100.796 28.6356 89.475 33.116C78.1541 37.5963 67.8677 44.1633 59.203 52.4419C50.5383 60.7205 43.6652 70.5486 38.9759 81.3652C34.2866 92.1817 31.873 103.775 31.873 115.483L125.183 115.483H218.494Z" fill="url(#paint0_linear)"/>
<path d="M115.402 100.703C114.428 100.703 113.625 101.497 113.773 102.459C114.144 104.872 115.274 107.121 117.021 108.869C119.187 111.034 122.124 112.251 125.187 112.251C128.25 112.251 131.187 111.034 133.353 108.869C135.1 107.121 136.23 104.872 136.601 102.459C136.749 101.497 135.946 100.703 134.972 100.703V100.703C133.999 100.703 133.229 101.501 133.016 102.452C132.687 103.926 131.945 105.29 130.86 106.375C129.355 107.88 127.315 108.725 125.187 108.725C123.059 108.725 121.019 107.88 119.514 106.375C118.429 105.29 117.687 103.926 117.358 102.452C117.145 101.501 116.375 100.703 115.402 100.703V100.703Z" fill="#464646"/>
<circle cx="91.0038" cy="78.0683" r="22.6347" fill="white"/>
<mask id="mask0" mask-type="alpha" maskUnits="userSpaceOnUse" x="68" y="55" width="46" height="46">
<circle cx="91.0038" cy="78.0683" r="22.6347" fill="white"/>
</mask>
<g mask="url(#mask0)">
<rect x="80.3789" y="55.4326" width="21.2489" height="45.2694" fill="#3D3E3E"/>
</g>
<circle cx="159.37" cy="78.0678" r="22.6347" fill="white"/>
<mask id="mask1" mask-type="alpha" maskUnits="userSpaceOnUse" x="136" y="55" width="47" height="46">
<circle cx="159.37" cy="78.0678" r="22.6347" fill="white"/>
</mask>
<g mask="url(#mask1)">
<rect x="148.744" y="55.4331" width="21.2489" height="45.2694" fill="#3D3E3E"/>
</g>
<defs>
<linearGradient id="paint0_linear" x1="125.183" y1="26.3296" x2="125.183" y2="204.635" gradientUnits="userSpaceOnUse">
<stop stop-color="#02AA82"/>
<stop offset="0.567708" stop-color="#36FFA5"/>
</linearGradient>
</defs>
</svg>
