<svg width="530" height="550" viewBox="0 0 530 550" fill="none" xmlns="http://www.w3.org/2000/svg">
<g filter="url(#filter0_d)">
<path d="M175.236 21.4868C175.236 21.4868 155.729 53.6685 158.407 75.207C161.086 96.7454 146.873 143.727 146.873 143.727L142.43 165.864L123.805 199.525C123.805 199.525 98.9721 260.645 92.7638 268.612C86.5556 276.579 12.088 358.072 12.088 358.072C12.088 358.072 -0.328494 436.007 28.9165 461.702C58.1615 487.397 98.9405 518.383 175.173 529.026C251.405 539.669 319.664 524.806 335.611 520.713C351.557 516.619 373.742 536.992 429.585 457.262C485.428 377.532 493.401 331.496 493.401 331.496C493.401 331.496 526.207 261.527 506.7 209.255C487.193 156.984 439.323 75.5218 420.73 56.9119C402.137 38.3019 362.271 11.7567 331.23 10.875C300.22 9.99333 200.037 2.90831 175.236 21.4868Z" fill="#111111"/>
<path d="M175.236 21.4868C175.236 21.4868 155.729 53.6685 158.407 75.207C161.086 96.7454 146.873 143.727 146.873 143.727L142.43 165.864L123.805 199.525C123.805 199.525 98.9721 260.645 92.7638 268.612C86.5556 276.579 12.088 358.072 12.088 358.072C12.088 358.072 -0.328494 436.007 28.9165 461.702C58.1615 487.397 98.9405 518.383 175.173 529.026C251.405 539.669 319.664 524.806 335.611 520.713C351.557 516.619 373.742 536.992 429.585 457.262C485.428 377.532 493.401 331.496 493.401 331.496C493.401 331.496 526.207 261.527 506.7 209.255C487.193 156.984 439.323 75.5218 420.73 56.9119C402.137 38.3019 362.271 11.7567 331.23 10.875C300.22 9.99333 200.037 2.90831 175.236 21.4868Z" stroke="#232323" stroke-width="9" stroke-miterlimit="10"/>
</g>
<path d="M225.5 341.5V294L279 297.5L286.969 334.854C287.088 334.858 287.092 334.908 287 335L286.969 334.854C286.276 334.826 281.701 336.29 269.5 339.5C255.194 343.264 232.716 342.441 225.5 341.5Z" fill="white"/>
<path d="M169 321L179 284.5L127.5 262.5C127.814 266.578 133.561 285.731 144.5 298.5C155.203 310.994 166.176 319.745 169 321Z" fill="white"/>
<path d="M171.5 322.5L179.5 284.5L223.5 294L224.5 336.5C222.931 337.441 223.471 344.326 215 341C208.654 338.508 181.225 329.401 171.5 322.5Z" fill="white" stroke="white"/>
<path d="M290 334.5L284 298L309.703 295.829L323.5 294L328.5 300L341 310.5L344.5 313.5V315L309.703 328.764L290 334.5Z" fill="white"/>
<path d="M376 339.115L351.5 318L348 313.5L400.996 281.713L430.173 263.834L435.82 267.598L430.173 295.828L413.232 339.115L403.82 360.758L397 368.5L376 339.115Z" fill="white"/>
<path d="M408.5 274.5L346.908 312.885C338.124 308.18 320.724 293.5 327.501 293.5C334.277 293.5 390.932 278.891 408.5 274.5Z" fill="white"/>
<path d="M314 408C305.718 406.494 294.392 358.83 290 337.5C346.47 315.857 330.89 316.5 347 316.5C364 316.5 392.676 355.885 395.5 370C398.324 384.115 324.353 409.882 314 408Z" fill="white"/>
<path d="M142 339.5L136 317L132.5 299L130 281.5C139.098 290.283 165.988 318.483 169 323C172.012 327.517 166.266 347.27 160.5 354L160 356L158.175 361.699L151.765 360.705L148 356L142 339.5Z" fill="white"/>
<path d="M225 401.5L225.5 343C236.794 343 248.618 342.941 266.5 342C284.382 341.059 284.676 335.677 287.5 338.5C290.324 341.323 291.118 355.913 293 362.5C294.506 367.77 296.059 373.991 297 376.5L310.5 408.5L276 409.5L225 401.5Z" fill="white"/>
<path d="M162.5 350.5L170.5 324C171.253 327.011 208.128 340.609 223.5 345L223 402C221.745 401.686 215.006 400.5 213.5 400.5C211.618 400.5 191 387.5 177 380.5C162.016 373.009 151.294 361.618 156 363.5C159.764 365.006 161.245 354.578 162.5 350.5Z" fill="white"/>
<path d="M255.093 33.4546C255.093 33.4546 295.179 24.6062 323.541 33.4546" stroke="#232323" stroke-width="4" stroke-miterlimit="10"/>
<path d="M228.716 58.2678H332.428" stroke="#232323" stroke-width="4" stroke-miterlimit="10"/>
<path d="M195.027 97.2511C195.027 97.2511 203 78.4207 224.272 82.0734" stroke="#232323" stroke-width="4" stroke-miterlimit="10"/>
<path d="M238.327 93.6931C238.327 93.6931 247.34 106.1 247.34 114.948" stroke="#232323" stroke-width="4" stroke-miterlimit="10"/>
<path d="M323.541 82.0734C323.541 82.0734 350.013 69.7928 375.319 70.6745" stroke="#232323" stroke-width="4" stroke-miterlimit="10"/>
<path d="M186.249 132.956C186.763 132.774 187.294 132.629 187.831 132.536C193.869 131.498 233.442 125.608 247.34 146.846C261.419 168.36 196.517 156.618 187.973 154.991C187.351 154.873 186.767 154.708 186.182 154.466C181.409 152.488 159.615 142.405 186.249 132.956Z" fill="white" stroke="#232323" stroke-width="4" stroke-miterlimit="10"/>
<path d="M224.5 134.5L222.5 158.5L203.094 157.49C202.307 145.965 210.5 132.5 210.5 132.5L224.5 134.5Z" fill="#232323" stroke="#232323" stroke-width="4" stroke-miterlimit="10"/>
<path d="M310.72 152.355C309.425 147.9 310.636 143.159 313.37 139.411C318.362 132.565 327.815 121.148 340.591 112.618C345.633 109.248 351.211 106.351 357.23 104.336C380.765 96.5056 396.688 101.278 402.008 103.441C403.34 103.982 404.514 104.803 405.54 105.81C409.58 109.779 419.768 121.061 416.382 131.007C412.191 143.319 410.426 157.489 388.271 157.489C372.38 157.489 354.657 155.659 345.906 154.623C342.294 154.196 338.625 154.639 335.246 155.986L327.317 159.146C324.844 160.132 322.386 161.637 319.724 161.701C316.831 161.77 312.99 160.167 310.72 152.355Z" fill="white" stroke="#232323" stroke-width="4" stroke-miterlimit="10"/>
<path d="M348.247 143.624C346.65 142.294 345.727 140.323 345.727 138.244V121.014C345.727 117.532 348.286 114.585 351.76 114.361C360.68 113.785 376.252 114.033 375.35 122.915C374.089 135.321 370.055 151.664 360.538 148.799C357.334 147.834 355.209 147.194 353.799 146.769C352.018 146.233 350.218 145.264 348.789 144.074L348.247 143.624Z" fill="#232323" stroke="#232323" stroke-width="4" stroke-miterlimit="10"/>
<path d="M268.581 184.035L260.608 213.225L242.802 235.803C242.802 235.803 236.846 250.697 252.288 262.537" stroke="#232323" stroke-width="4" stroke-miterlimit="10"/>
<path d="M119.678 241.628C119.678 241.628 123.239 223.018 143.597 229.222C163.955 235.425 173.252 234.795 173.252 234.795" stroke="#232323" stroke-width="4" stroke-miterlimit="10"/>
<path d="M375.351 213.225C375.351 213.225 407.778 234.165 454.766 234.795C501.753 235.425 512.373 234.795 512.373 234.795" stroke="#232323" stroke-width="4" stroke-miterlimit="10"/>
<path d="M127.65 262.537C127.65 262.537 187.086 296.765 271.764 296.671C375.854 296.545 428.168 262.537 428.168 262.537C428.168 262.537 445.91 260.207 428.168 303.63C410.425 347.022 401.444 377.157 375.35 389.563C349.257 401.97 315.222 409.937 315.222 409.937H276.05L213.652 401.088C213.652 401.088 157.305 377.031 146.464 352.312C135.623 327.53 127.65 285.24 127.65 262.537Z" stroke="#232323" stroke-width="4" stroke-miterlimit="10"/>
<path d="M128.057 267.301C128.057 267.301 132.753 309.516 194.566 335.857C256.379 362.198 347.268 314.749 347.268 314.749L429.23 262.893" stroke="#232323" stroke-width="4" stroke-miterlimit="10"/>
<path d="M178.293 282.91C178.293 282.91 162.654 362.37 155.5 363" stroke="#232323" stroke-width="4" stroke-miterlimit="10"/>
<path d="M224.272 293.5V401.5" stroke="#232323" stroke-width="4" stroke-miterlimit="10"/>
<path d="M281.5 297C281.5 297 295.085 393.059 315.222 409.905" stroke="#232323" stroke-width="5" stroke-miterlimit="10"/>
<path d="M323 293.5C323 293.5 345.412 314.556 368.448 332.851C391.485 351.146 396.307 371.898 396.307 371.898" stroke="#232323" stroke-width="3" stroke-miterlimit="10"/>
<path d="M104.896 403.702C104.896 403.702 124.719 437.962 238.327 440.323C351.935 442.685 360.569 431.034 360.569 431.034" stroke="#232323" stroke-width="5" stroke-miterlimit="10"/>
<path d="M80.0635 444.449C80.0635 444.449 119.866 475.15 173.25 483.999C226.635 492.847 323.54 474.552 323.54 474.552" stroke="#232323" stroke-width="5" stroke-miterlimit="10"/>
<defs>
<filter id="filter0_d" x="0.969727" y="0.320312" width="528.424" height="548.973" filterUnits="userSpaceOnUse" color-interpolation-filters="sRGB">
<feFlood flood-opacity="0" result="BackgroundImageFix"/>
<feColorMatrix in="SourceAlpha" type="matrix" values="0 0 0 0 0 0 0 0 0 0 0 0 0 0 0 0 0 0 127 0"/>
<feOffset dx="4" dy="4"/>
<feGaussianBlur stdDeviation="4"/>
<feColorMatrix type="matrix" values="0 0 0 0 0 0 0 0 0 0 0 0 0 0 0 0 0 0 0.5 0"/>
<feBlend mode="normal" in2="BackgroundImageFix" result="effect1_dropShadow"/>
<feBlend mode="normal" in="SourceGraphic" in2="effect1_dropShadow" result="shape"/>
</filter>
</defs>
</svg>
