<svg width="240" height="172" viewBox="0 0 240 172" fill="none" xmlns="http://www.w3.org/2000/svg">
<g clip-path="url(#clip0)">
<g filter="url(#filter0_d)">
<path d="M2.05862 101.983C2.05862 101.983 20.2643 63.9188 23.4601 63.1759C26.656 62.4329 23.4601 60.2123 23.4601 60.2123C23.4601 60.2123 21.6856 61.9459 13.47 58.974C5.25447 56.0105 -0.151357 42.4144 -0.151357 42.4144C-0.151357 42.4144 -0.21708 43.6857 10.077 44.8496C20.3711 46.0136 25.5879 49.8027 27.9129 52.8653C30.2297 55.9279 23.419 46.5997 22.9836 43.6857C22.5482 40.7716 21.6773 35.2325 22.4003 30.2795C23.1233 25.3264 25.0128 21.2484 25.0128 21.2484C25.0128 21.2484 35.159 34.795 37.0486 39.1702C38.93 43.5371 39.2257 45.2872 39.2257 45.2872C39.2257 45.2872 53.4304 25.6236 57.3492 22.1235C61.2598 18.6233 74.8894 9.15475 79.9666 7.70186C85.0438 6.24897 88.8065 4.93642 92.142 4.78782C95.4775 4.63923 101.278 13.5299 101.278 13.5299C101.278 13.5299 110.266 28.678 112.007 34.9436C113.749 41.2092 116.559 56.6461 116.238 63.3492C115.918 70.0523 116.238 77.7708 116.238 77.7708C116.238 77.7708 121.718 67.7162 120.995 52.5681C120.272 37.4201 117.158 24.7403 114.513 20.9595C111.859 17.1704 108.82 8.5769 106.79 5.37393C104.761 2.17097 122.301 4.78782 122.301 4.78782C122.301 4.78782 128.537 19.6469 128.824 25.6236C129.112 31.6003 129.983 54.5081 129.983 54.5081C129.983 54.5081 126.935 76.029 125.489 77.0526C124.043 78.0763 132.595 72.5371 134.764 61.0296C136.941 49.522 133.893 11.7881 133.893 11.7881C133.893 11.7881 143.465 14.7022 144.475 16.4522C145.494 18.2023 143.892 45.0065 143.892 45.0065C143.892 45.0065 136.646 74.4358 135.052 75.8887C133.458 77.3416 143.752 65.9826 147.375 53.6C150.998 41.2174 150.998 23.5929 150.998 23.5929L159.986 29.5695C159.986 29.5695 159.986 46.7566 156.075 55.4987C152.165 64.2408 146.652 73.5607 146.652 73.5607C146.652 73.5607 154.482 70.9356 159.263 59.4281C164.044 47.9205 165.211 36.9908 165.211 36.9908C165.211 36.9908 168.259 45.3284 170.576 52.8901C172.893 60.4517 173.188 65.834 173.188 65.834C173.188 65.834 173.04 70.0606 173.188 73.7011C173.336 77.3416 173.188 79.0916 173.188 79.0916C173.188 79.0916 176.376 81.1306 176.376 76.029C176.376 70.9274 176.376 66.4119 176.376 66.4119C176.376 66.4119 191.016 66.2633 192.183 68.4509C193.341 70.6384 189.135 80.982 189.866 81.5599C190.597 82.1377 194.36 72.2399 196.389 70.3413C198.418 68.4509 207.989 75.5832 207.989 75.5832C207.989 75.5832 202.041 83.7392 202.337 85.4893C202.633 87.2394 211.037 78.3487 211.037 78.3487L220.313 85.7782C220.313 85.7782 216.542 91.3174 216.542 92.0438C216.542 92.7703 222.054 91.6063 222.917 90.7313C223.788 89.8562 231.33 101.223 231.617 102.825C231.905 104.426 211.317 92.6299 199.725 88.8409C188.124 85.0518 174.93 82.1377 171.89 83.4503C168.842 84.7629 158.984 90.0048 158.261 92.0438C157.538 94.0828 156.379 99.0441 164.496 102.974C172.613 106.903 148.115 109.668 148.115 109.668H140.137C140.137 109.668 145.067 104.864 145.354 102.965C145.642 101.075 134.912 108.942 134.912 108.942H130.854C130.854 108.942 135.931 102.965 138.1 101.364C140.277 99.7623 128.389 107.629 127.518 108.942C126.647 110.254 122.006 109.668 122.006 109.668C122.006 109.668 129.112 98.1608 133.746 96.6997C138.387 95.2468 140.556 94.2232 141.575 94.5121C142.594 94.801 142.158 85.77 142.158 85.77C142.158 85.77 148.534 78.6293 147.523 77.7543C146.504 76.8793 134.329 87.0743 126.064 87.809C117.799 88.5437 88.5108 89.1215 86.9169 88.684C85.3231 88.2465 77.0583 94.0746 77.6416 96.4025C78.2249 98.7304 80.9771 103.395 83.2939 105.582C85.6107 107.77 64.4474 112.723 60.9641 111.699C57.4807 110.676 66.0413 107.035 66.0413 104.418C66.0413 101.801 56.618 111.831 55.0242 111.839C53.4304 111.848 50.3824 111.839 50.3824 111.839C50.3824 111.839 57.0535 105.731 56.7577 104.856C56.4619 103.981 46.4636 111.839 46.4636 111.839H42.4051C42.4051 111.839 44.8698 105.434 49.0762 102.231C53.2825 99.0276 59.9535 97.2775 60.6765 97.2775C61.3995 97.2775 61.2598 89.1215 61.2598 89.1215C61.2598 89.1215 66.1891 81.1059 71.2663 78.9265C76.3436 76.7472 76.3435 76.7389 76.3435 76.7389C76.3435 76.7389 68.8017 75.7153 67.7912 75.1375C66.7724 74.5513 63.8806 60.5673 62.714 59.4033C61.5556 58.2393 54.1616 49.3486 51.9845 48.6222C49.8074 47.8958 49.8074 47.8958 49.8074 47.8958C49.8074 47.8958 57.4889 55.1767 57.6368 56.6379C57.7846 58.099 61.5474 64.5049 61.2598 66.5439C60.9723 68.5829 61.9828 80.1153 61.9828 80.1153C61.9828 80.1153 61.6952 82.8642 57.6368 84.3171C53.5783 85.77 49.224 87.6686 49.224 87.6686C49.224 87.6686 46.324 89.1215 43.276 89.2701C40.228 89.4187 35.4466 89.7076 35.4466 89.7076L22.54 101.364C22.54 101.364 20.5107 102.965 20.0753 102.09C19.6399 101.215 18.6294 100.637 17.6106 101.653C16.5919 102.676 17.0273 103.692 14.2751 103.692C11.5229 103.692 6.2239 103.461 2.05862 101.983Z" fill="white"/>
<path d="M2.05862 101.983C2.05862 101.983 20.2643 63.9188 23.4601 63.1759C26.656 62.4329 23.4601 60.2123 23.4601 60.2123C23.4601 60.2123 21.6856 61.9459 13.47 58.974C5.25447 56.0105 -0.151357 42.4144 -0.151357 42.4144C-0.151357 42.4144 -0.21708 43.6857 10.077 44.8496C20.3711 46.0136 25.5879 49.8027 27.9129 52.8653C30.2297 55.9279 23.419 46.5997 22.9836 43.6857C22.5482 40.7716 21.6773 35.2325 22.4003 30.2795C23.1233 25.3264 25.0128 21.2484 25.0128 21.2484C25.0128 21.2484 35.159 34.795 37.0486 39.1702C38.93 43.5371 39.2257 45.2872 39.2257 45.2872C39.2257 45.2872 53.4304 25.6236 57.3492 22.1235C61.2598 18.6233 74.8894 9.15475 79.9666 7.70186C85.0438 6.24897 88.8065 4.93642 92.142 4.78782C95.4775 4.63923 101.278 13.5299 101.278 13.5299C101.278 13.5299 110.266 28.678 112.007 34.9436C113.749 41.2092 116.559 56.6461 116.238 63.3492C115.918 70.0523 116.238 77.7708 116.238 77.7708C116.238 77.7708 121.718 67.7162 120.995 52.5681C120.272 37.4201 117.158 24.7403 114.513 20.9595C111.859 17.1704 108.82 8.5769 106.79 5.37393C104.761 2.17097 122.301 4.78782 122.301 4.78782C122.301 4.78782 128.537 19.6469 128.824 25.6236C129.112 31.6003 129.983 54.5081 129.983 54.5081C129.983 54.5081 126.935 76.029 125.489 77.0526C124.043 78.0763 132.595 72.5371 134.764 61.0296C136.941 49.522 133.893 11.7881 133.893 11.7881C133.893 11.7881 143.465 14.7022 144.475 16.4522C145.494 18.2023 143.892 45.0065 143.892 45.0065C143.892 45.0065 136.646 74.4358 135.052 75.8887C133.458 77.3416 143.752 65.9826 147.375 53.6C150.998 41.2174 150.998 23.5929 150.998 23.5929L159.986 29.5695C159.986 29.5695 159.986 46.7566 156.075 55.4987C152.165 64.2408 146.652 73.5607 146.652 73.5607C146.652 73.5607 154.482 70.9356 159.263 59.4281C164.044 47.9205 165.211 36.9908 165.211 36.9908C165.211 36.9908 168.259 45.3284 170.576 52.8901C172.893 60.4517 173.188 65.834 173.188 65.834C173.188 65.834 173.04 70.0606 173.188 73.7011C173.336 77.3416 173.188 79.0916 173.188 79.0916C173.188 79.0916 176.376 81.1306 176.376 76.029C176.376 70.9274 176.376 66.4119 176.376 66.4119C176.376 66.4119 191.016 66.2633 192.183 68.4509C193.341 70.6384 189.135 80.982 189.866 81.5599C190.597 82.1377 194.36 72.2399 196.389 70.3413C198.418 68.4509 207.989 75.5832 207.989 75.5832C207.989 75.5832 202.041 83.7392 202.337 85.4893C202.633 87.2394 211.037 78.3487 211.037 78.3487L220.313 85.7782C220.313 85.7782 216.542 91.3174 216.542 92.0438C216.542 92.7703 222.054 91.6063 222.917 90.7313C223.788 89.8562 231.33 101.223 231.617 102.825C231.905 104.426 211.317 92.6299 199.725 88.8409C188.124 85.0518 174.93 82.1377 171.89 83.4503C168.842 84.7629 158.984 90.0048 158.261 92.0438C157.538 94.0828 156.379 99.0441 164.496 102.974C172.613 106.903 148.115 109.668 148.115 109.668H140.137C140.137 109.668 145.067 104.864 145.354 102.965C145.642 101.075 134.912 108.942 134.912 108.942H130.854C130.854 108.942 135.931 102.965 138.1 101.364C140.277 99.7623 128.389 107.629 127.518 108.942C126.647 110.254 122.006 109.668 122.006 109.668C122.006 109.668 129.112 98.1608 133.746 96.6997C138.387 95.2468 140.556 94.2232 141.575 94.5121C142.594 94.801 142.158 85.77 142.158 85.77C142.158 85.77 148.534 78.6293 147.523 77.7543C146.504 76.8793 134.329 87.0743 126.064 87.809C117.799 88.5437 88.5108 89.1215 86.9169 88.684C85.3231 88.2465 77.0583 94.0746 77.6416 96.4025C78.2249 98.7304 80.9771 103.395 83.2939 105.582C85.6107 107.77 64.4474 112.723 60.9641 111.699C57.4807 110.676 66.0413 107.035 66.0413 104.418C66.0413 101.801 56.618 111.831 55.0242 111.839C53.4304 111.848 50.3824 111.839 50.3824 111.839C50.3824 111.839 57.0535 105.731 56.7577 104.856C56.4619 103.981 46.4636 111.839 46.4636 111.839H42.4051C42.4051 111.839 44.8698 105.434 49.0762 102.231C53.2825 99.0276 59.9535 97.2775 60.6765 97.2775C61.3995 97.2775 61.2598 89.1215 61.2598 89.1215C61.2598 89.1215 66.1891 81.1059 71.2663 78.9265C76.3436 76.7472 76.3435 76.7389 76.3435 76.7389C76.3435 76.7389 68.8017 75.7153 67.7912 75.1375C66.7724 74.5513 63.8806 60.5673 62.714 59.4033C61.5556 58.2393 54.1616 49.3486 51.9845 48.6222C49.8074 47.8958 49.8074 47.8958 49.8074 47.8958C49.8074 47.8958 57.4889 55.1767 57.6368 56.6379C57.7846 58.099 61.5474 64.5049 61.2598 66.5439C60.9723 68.5829 61.9828 80.1153 61.9828 80.1153C61.9828 80.1153 61.6952 82.8642 57.6368 84.3171C53.5783 85.77 49.224 87.6686 49.224 87.6686C49.224 87.6686 46.324 89.1215 43.276 89.2701C40.228 89.4187 35.4466 89.7076 35.4466 89.7076L22.54 101.364C22.54 101.364 20.5107 102.965 20.0753 102.09C19.6399 101.215 18.6294 100.637 17.6106 101.653C16.5919 102.676 17.0273 103.692 14.2751 103.692C11.5229 103.692 6.2239 103.461 2.05862 101.983Z" stroke="#020203" stroke-miterlimit="10"/>
</g>
<path d="M88.2144 91.3179C88.2144 91.3179 81.2558 94.2319 81.4037 96.857C81.5516 99.4821 88.0747 103.412 89.2331 105.013C90.3915 106.615 83.5808 110.404 83.5808 110.404C83.5808 110.404 88.3623 111.427 92.4207 110.404C96.4792 109.38 101.261 105.599 101.261 105.599C101.261 105.599 93.4313 100.06 93.7188 98.4585C94.0063 96.857 95.1647 94.818 96.0356 93.2165C96.9064 91.615 88.2144 91.3179 88.2144 91.3179Z" fill="white" stroke="#020203" stroke-miterlimit="10"/>
<path d="M127.797 89.5677L138.674 85.9272V91.9039C138.674 91.9039 132.003 94.3804 129.399 96.2708C126.794 98.1612 121.421 107.927 119.392 108.653C117.363 109.38 110.404 108.653 110.404 108.653C110.404 108.653 116.492 101.224 118.817 99.4738C121.142 97.7237 126.211 94.9583 126.211 94.9583C126.211 94.9583 127.222 94.6693 127.797 89.5677Z" fill="white" stroke="#020203" stroke-miterlimit="10"/>
<path d="M36.604 56.5059L31.7404 63.5722L20.3701 80.1236L25.8745 75.7319L32.3977 75.0055L32.6934 63.7868L36.604 56.5059Z" fill="#FA2222"/>
</g>
<g filter="url(#filter1_d)">
<path d="M19.44 140.6C21.8507 139.171 23.1413 138.456 23.312 138.456C23.504 138.456 23.8133 138.627 24.24 138.968C24.6667 139.288 25.0933 139.747 25.52 140.344C25.9467 140.92 26.16 141.485 26.16 142.04V147.416C26.16 147.907 25.2853 148.525 23.536 149.272C23.984 149.4 24.5387 149.88 25.2 150.712C25.8613 151.523 26.192 152.259 26.192 152.92V160.024C26.192 160.195 25.0187 160.739 22.672 161.656C20.3467 162.552 18.9173 163 18.384 163C17.872 163 17.2747 162.541 16.592 161.624C15.9307 160.707 15.6 159.608 15.6 158.328V142.968C15.6 141.816 15.1627 141.144 14.288 140.952V140.248L17.52 138.424C17.9893 138.616 18.4267 138.936 18.832 139.384C19.2373 139.811 19.44 140.216 19.44 140.6ZM21.072 160.056C21.4773 160.056 21.8933 159.885 22.32 159.544V154.584C22.32 153.005 21.776 152.216 20.688 152.216C20.2613 152.216 19.8453 152.376 19.44 152.696V157.688C19.44 159.267 19.984 160.056 21.072 160.056ZM22.32 143.8C22.32 143.224 22.192 142.733 21.936 142.328C21.7013 141.901 21.3493 141.688 20.88 141.688C20.432 141.688 19.952 142.008 19.44 142.648V149.272C21.36 148.739 22.32 147.587 22.32 145.816V143.8ZM27.5008 146.68L31.0208 144.76C31.1701 144.803 31.3408 144.867 31.5328 144.952C31.7461 145.016 32.0234 145.219 32.3648 145.56C32.7274 145.901 32.9088 146.285 32.9088 146.712C33.0154 146.669 33.5168 146.339 34.4128 145.72C35.3301 145.08 35.9168 144.76 36.1728 144.76C36.8554 144.76 37.4954 145.208 38.0928 146.104C38.6901 147 38.9888 147.821 38.9888 148.568V150.136L35.6927 151.992L35.1488 151.544C35.1488 149.752 34.9781 148.728 34.6368 148.472C34.2528 148.195 33.6768 148.056 32.9088 148.056V158.264C32.9088 159.565 33.3461 160.301 34.2208 160.472V161.176L30.9888 163C30.5194 162.808 30.0821 162.499 29.6768 162.072C29.2714 161.624 29.0688 161.208 29.0688 160.824V150.2C29.0688 149.261 28.8981 148.557 28.5568 148.088C28.2368 147.619 27.8848 147.384 27.5008 147.384V146.68ZM41.225 158.328V147.704C41.225 147.555 42.441 147.032 44.873 146.136C47.305 145.219 48.7023 144.76 49.065 144.76C49.4277 144.76 49.9717 145.197 50.697 146.072C51.4437 146.947 51.817 147.736 51.817 148.44V160.024C51.817 160.195 50.6437 160.739 48.297 161.656C45.9717 162.552 44.5423 163 44.009 163C43.497 163 42.8997 162.541 42.217 161.624C41.5557 160.707 41.225 159.608 41.225 158.328ZM46.697 160.056C47.1023 160.056 47.5183 159.885 47.945 159.544V150.104C47.945 148.525 47.401 147.736 46.313 147.736C45.8863 147.736 45.4703 147.896 45.065 148.216V157.688C45.065 159.267 45.609 160.056 46.697 160.056ZM55.0063 160.824V149.976C55.0063 149.272 54.8569 148.664 54.5583 148.152C54.2596 147.64 53.8863 147.384 53.4383 147.384V146.68C53.5876 146.659 54.7503 146.008 56.9263 144.728C57.0756 144.771 57.2569 144.835 57.4703 144.92C57.6836 144.984 57.9609 145.187 58.3023 145.528C58.6649 145.869 58.8463 146.264 58.8463 146.712C58.9743 146.648 59.3369 146.445 59.9343 146.104C61.5129 145.208 62.4516 144.76 62.7503 144.76C63.4329 144.76 64.0729 145.208 64.6703 146.104C65.2676 147 65.5663 147.821 65.5663 148.568V158.264C65.5663 159.437 66.0889 160.131 67.1343 160.344V161.048L63.6463 163C63.1769 162.808 62.7396 162.499 62.3343 162.072C61.9289 161.624 61.7263 161.208 61.7263 160.824V151.544C61.7263 150.349 61.5876 149.443 61.3103 148.824C61.0543 148.184 60.5849 147.864 59.9023 147.864L58.8463 148.056V158.264C58.8463 159.565 59.2836 160.301 60.1583 160.472V161.176L56.9263 163C56.4569 162.808 56.0196 162.499 55.6143 162.072C55.2089 161.624 55.0063 161.208 55.0063 160.824ZM76.5963 144.76C76.7029 144.76 76.9696 144.931 77.3963 145.272C77.8229 145.592 78.2496 146.051 78.6763 146.648C79.1029 147.224 79.3163 147.789 79.3163 148.344V153.72C79.3163 154.104 78.7509 154.573 77.6203 155.128C76.4896 155.683 75.3909 156.141 74.3243 156.504C73.2789 156.845 72.7136 157.016 72.6283 157.016C72.6283 158.659 73.3429 159.672 74.7723 160.056C75.4763 160.227 76.3189 160.312 77.3003 160.312V161.24C73.8016 162.413 71.9349 163 71.7003 163C71.0603 163 70.4096 162.552 69.7483 161.656C69.0869 160.739 68.7563 159.672 68.7563 158.456V147.704C68.7563 147.555 69.9723 147.032 72.4043 146.136C74.8363 145.219 76.2336 144.76 76.5963 144.76ZM75.4763 149.848C75.4763 149.251 75.3376 148.749 75.0603 148.344C74.7829 147.917 74.4309 147.704 74.0043 147.704C73.5776 147.704 73.1083 147.864 72.5963 148.184V155.576C74.5163 155.043 75.4763 153.891 75.4763 152.12V149.848ZM82.35 160.824V149.976C82.35 149.272 82.2007 148.664 81.902 148.152C81.6033 147.64 81.23 147.384 80.782 147.384V146.68C80.9313 146.659 82.094 146.008 84.27 144.728C84.4193 144.771 84.6007 144.835 84.814 144.92C85.0273 144.984 85.3047 145.187 85.646 145.528C86.0087 145.869 86.19 146.264 86.19 146.712C86.318 146.648 86.6807 146.445 87.278 146.104C88.8567 145.208 89.7953 144.76 90.094 144.76C90.7767 144.76 91.4167 145.208 92.014 146.104C92.6113 147 92.91 147.821 92.91 148.568V158.264C92.91 159.437 93.4327 160.131 94.478 160.344V161.048L90.99 163C90.5207 162.808 90.0833 162.499 89.678 162.072C89.2727 161.624 89.07 161.208 89.07 160.824V151.544C89.07 150.349 88.9313 149.443 88.654 148.824C88.398 148.184 87.9287 147.864 87.246 147.864L86.19 148.056V158.264C86.19 159.565 86.6273 160.301 87.502 160.472V161.176L84.27 163C83.8007 162.808 83.3633 162.499 82.958 162.072C82.5527 161.624 82.35 161.208 82.35 160.824ZM96.1 158.328V147.704C96.1 147.555 97.316 147.032 99.748 146.136C102.18 145.219 103.577 144.76 103.94 144.76C104.303 144.76 104.847 145.197 105.572 146.072C106.319 146.947 106.692 147.736 106.692 148.44V160.024C106.692 160.195 105.519 160.739 103.172 161.656C100.847 162.552 99.4173 163 98.884 163C98.372 163 97.7747 162.541 97.092 161.624C96.4307 160.707 96.1 159.608 96.1 158.328ZM101.572 160.056C101.977 160.056 102.393 159.885 102.82 159.544V150.104C102.82 148.525 102.276 147.736 101.188 147.736C100.761 147.736 100.345 147.896 99.94 148.216V157.688C99.94 159.267 100.484 160.056 101.572 160.056ZM111.353 155.992C110.82 155.992 110.361 155.587 109.977 154.776C109.593 153.965 109.401 152.973 109.401 151.8V148.344C109.401 147.939 110.521 147.245 112.761 146.264C115.001 145.261 116.292 144.76 116.633 144.76C116.825 144.76 116.996 144.877 117.145 145.112C117.295 145.325 117.412 145.507 117.497 145.656C117.583 145.784 117.711 146.019 117.881 146.36C118.073 146.68 118.233 146.947 118.361 147.16C118.639 147.672 118.991 147.928 119.417 147.928V148.568C119.076 148.717 118.628 148.941 118.073 149.24C116.708 149.987 115.972 150.36 115.865 150.36C115.545 150.36 115.193 149.837 114.809 148.792C114.447 147.747 114.116 147.224 113.817 147.224C113.433 147.224 113.241 147.544 113.241 148.184V152.12C113.241 152.973 113.433 153.4 113.817 153.4C113.903 153.4 114.564 153.123 115.801 152.568C117.039 152.013 117.785 151.736 118.041 151.736C118.553 151.736 119.001 152.152 119.385 152.984C119.791 153.795 119.993 154.84 119.993 156.12V159.736C119.993 160.141 118.767 160.845 116.313 161.848C113.881 162.829 112.484 163.32 112.121 163.32C111.972 163.32 111.823 163.192 111.673 162.936C111.545 162.659 111.353 162.243 111.097 161.688C110.863 161.133 110.628 160.664 110.393 160.28C110.116 159.768 109.764 159.512 109.337 159.512V158.872C109.679 158.723 110.137 158.499 110.713 158.2C112.057 157.453 112.783 157.08 112.889 157.08C113.209 157.08 113.604 157.709 114.073 158.968C114.564 160.227 114.959 160.856 115.257 160.856C115.471 160.856 115.673 160.771 115.865 160.6C116.057 160.429 116.153 160.195 116.153 159.896V155.896C116.153 154.936 115.887 154.456 115.353 154.456C115.183 154.456 114.511 154.712 113.337 155.224C112.164 155.736 111.503 155.992 111.353 155.992ZM130.69 144.76C130.797 144.76 131.063 144.931 131.49 145.272C131.917 145.592 132.343 146.051 132.77 146.648C133.197 147.224 133.41 147.789 133.41 148.344V153.72C133.41 154.104 132.845 154.573 131.714 155.128C130.583 155.683 129.485 156.141 128.418 156.504C127.373 156.845 126.807 157.016 126.722 157.016C126.722 158.659 127.437 159.672 128.866 160.056C129.57 160.227 130.413 160.312 131.394 160.312V161.24C127.895 162.413 126.029 163 125.794 163C125.154 163 124.503 162.552 123.842 161.656C123.181 160.739 122.85 159.672 122.85 158.456V147.704C122.85 147.555 124.066 147.032 126.498 146.136C128.93 145.219 130.327 144.76 130.69 144.76ZM129.57 149.848C129.57 149.251 129.431 148.749 129.154 148.344C128.877 147.917 128.525 147.704 128.098 147.704C127.671 147.704 127.202 147.864 126.69 148.184V155.576C128.61 155.043 129.57 153.891 129.57 152.12V149.848ZM140.86 147.864C140.646 147.864 140.454 147.971 140.284 148.184V157.016C140.284 158.659 140.988 159.672 142.396 160.056C143.121 160.227 143.985 160.312 144.988 160.312V161.24C141.489 162.413 139.622 163 139.388 163C138.748 163 138.097 162.552 137.436 161.656C136.774 160.739 136.444 159.672 136.444 158.456V147.704C136.444 147.555 137.66 147.032 140.092 146.136C142.545 145.219 143.953 144.76 144.316 144.76C144.444 144.76 144.593 145.069 144.764 145.688C144.934 146.307 145.126 147.053 145.34 147.928C145.574 148.803 145.809 149.453 146.044 149.88C146.3 150.285 146.769 150.488 147.452 150.488V151.128C146.982 151.341 146.182 151.725 145.052 152.28C143.942 152.813 143.345 153.08 143.26 153.08C142.94 153.08 142.534 152.216 142.044 150.488C141.553 148.739 141.158 147.864 140.86 147.864Z" fill="#FA2222"/>
<path d="M157.427 152.792C156.894 152.792 156.435 152.387 156.051 151.576C155.667 150.765 155.475 149.773 155.475 148.6V141.944C155.475 141.539 156.595 140.845 158.835 139.864C161.075 138.861 162.366 138.36 162.707 138.36C162.963 138.36 163.326 138.787 163.795 139.64C163.902 139.853 164.051 140.141 164.243 140.504C164.456 140.867 164.627 141.165 164.755 141.4C165.032 141.912 165.384 142.168 165.811 142.168V142.808C165.47 142.957 165.011 143.181 164.435 143.48C163.091 144.227 162.366 144.6 162.259 144.6C161.939 144.6 161.534 143.971 161.043 142.712C160.574 141.453 160.19 140.824 159.891 140.824C159.507 140.824 159.315 141.144 159.315 141.784V148.92C159.315 149.773 159.507 150.2 159.891 150.2C159.976 150.2 160.638 149.923 161.875 149.368C163.112 148.813 163.859 148.536 164.115 148.536C164.627 148.536 165.075 148.952 165.459 149.784C165.864 150.595 166.067 151.64 166.067 152.92V159.736C166.067 160.141 164.84 160.845 162.387 161.848C159.955 162.829 158.558 163.32 158.195 163.32C158.046 163.32 157.875 163.139 157.683 162.776C157.491 162.413 157.235 161.901 156.915 161.24C156.616 160.557 156.339 159.992 156.083 159.544C155.848 159.096 155.518 158.872 155.091 158.872V158.232C155.432 158.083 155.88 157.859 156.435 157.56C157.8 156.813 158.536 156.44 158.643 156.44C158.963 156.44 159.411 157.176 159.987 158.648C160.584 160.12 161.032 160.856 161.331 160.856C161.544 160.856 161.747 160.771 161.939 160.6C162.131 160.429 162.227 160.195 162.227 159.896V152.696C162.227 151.736 161.96 151.256 161.427 151.256C161.256 151.256 160.584 151.512 159.411 152.024C158.238 152.536 157.576 152.792 157.427 152.792ZM172.909 141.432V145.24H174.541L174.221 146.808H172.909V158.264C172.909 159.565 173.346 160.301 174.221 160.472V161.176L170.989 163C170.519 162.808 170.082 162.499 169.677 162.072C169.271 161.624 169.069 161.208 169.069 160.824V146.84H167.757L168.077 145.496C168.717 145.496 169.485 145.069 170.381 144.216C171.298 143.341 171.842 142.413 172.013 141.432H172.909ZM179.94 158.008C179.94 158.563 180.1 159.021 180.42 159.384C180.761 159.725 181.135 159.896 181.54 159.896C181.945 159.896 182.372 159.736 182.82 159.416V149.464C182.82 148.163 182.383 147.427 181.508 147.256V146.552L184.74 144.728C185.209 144.92 185.647 145.24 186.052 145.688C186.457 146.115 186.66 146.52 186.66 146.904V157.752C186.66 158.456 186.809 159.064 187.108 159.576C187.407 160.088 187.78 160.344 188.228 160.344V161.048C188.079 161.069 186.916 161.72 184.74 163C184.249 162.787 183.801 162.477 183.396 162.072C183.012 161.645 182.82 161.24 182.82 160.856L178.82 163C178.756 162.957 178.66 162.904 178.532 162.84C178.404 162.755 178.18 162.595 177.86 162.36C177.561 162.104 177.295 161.837 177.06 161.56C176.42 160.856 176.1 160.056 176.1 159.16V149.464C176.1 148.291 175.577 147.597 174.532 147.384V146.68L178.02 144.728C178.489 144.92 178.927 145.24 179.332 145.688C179.737 146.115 179.94 146.52 179.94 146.904V158.008ZM195.866 138.36C196.442 138.36 197.349 139.757 198.586 142.552C199.823 145.347 200.442 147.277 200.442 148.344V158.104C200.442 158.595 200.57 159.075 200.826 159.544C201.103 160.013 201.487 160.28 201.978 160.344V161.048C201.829 161.069 200.666 161.72 198.49 163C197.999 162.787 197.551 162.477 197.146 162.072C196.762 161.645 196.57 161.251 196.57 160.888C194.287 162.296 192.954 163 192.57 163C192.421 163 192.133 162.84 191.706 162.52C191.301 162.179 190.885 161.699 190.458 161.08C190.053 160.44 189.85 159.789 189.85 159.128V147.704C189.85 147.491 191.653 146.755 195.258 145.496C194.49 143.811 193.871 142.627 193.402 141.944C192.933 141.261 192.474 140.92 192.026 140.92H190.97V139.96C193.338 138.893 194.97 138.36 195.866 138.36ZM195.322 160.056C195.727 160.056 196.143 159.885 196.57 159.544V148.408C196.57 148.28 196.474 148.013 196.282 147.608C196.111 147.181 195.983 146.968 195.898 146.968C195.279 146.968 194.65 147.16 194.01 147.544L193.69 147.736V157.688C193.69 159.267 194.234 160.056 195.322 160.056ZM207.44 146.936V158.264C207.44 159.565 207.877 160.301 208.752 160.472V161.176L205.52 163C205.051 162.808 204.613 162.499 204.208 162.072C203.803 161.624 203.6 161.208 203.6 160.824V149.496C203.6 148.195 203.163 147.459 202.288 147.288V146.584L205.52 144.76C205.989 144.952 206.427 145.272 206.832 145.72C207.237 146.147 207.44 146.552 207.44 146.936ZM203.12 140.76V138.808C203.12 138.744 203.557 138.552 204.432 138.232C205.328 137.891 205.84 137.72 205.968 137.72C206.117 137.72 206.32 137.901 206.576 138.264C206.853 138.627 206.992 139 206.992 139.384V141.72C206.992 141.784 206.565 141.987 205.712 142.328C204.859 142.648 204.336 142.808 204.144 142.808C203.952 142.808 203.728 142.627 203.472 142.264C203.237 141.88 203.12 141.379 203.12 140.76ZM210.631 158.328V147.704C210.631 147.555 211.847 147.032 214.279 146.136C216.711 145.219 218.109 144.76 218.471 144.76C218.834 144.76 219.378 145.197 220.103 146.072C220.85 146.947 221.223 147.736 221.223 148.44V160.024C221.223 160.195 220.05 160.739 217.703 161.656C215.378 162.552 213.949 163 213.415 163C212.903 163 212.306 162.541 211.623 161.624C210.962 160.707 210.631 159.608 210.631 158.328ZM216.103 160.056C216.509 160.056 216.925 159.885 217.351 159.544V150.104C217.351 148.525 216.807 147.736 215.719 147.736C215.293 147.736 214.877 147.896 214.471 148.216V157.688C214.471 159.267 215.015 160.056 216.103 160.056Z" fill="white"/>
</g>
<defs>
<filter id="filter0_d" x="-4.65137" y="3.28076" width="240.771" height="117.062" filterUnits="userSpaceOnUse" color-interpolation-filters="sRGB">
<feFlood flood-opacity="0" result="BackgroundImageFix"/>
<feColorMatrix in="SourceAlpha" type="matrix" values="0 0 0 0 0 0 0 0 0 0 0 0 0 0 0 0 0 0 127 0"/>
<feOffset dy="4"/>
<feGaussianBlur stdDeviation="2"/>
<feColorMatrix type="matrix" values="0 0 0 0 0 0 0 0 0 0 0 0 0 0 0 0 0 0 0.25 0"/>
<feBlend mode="normal" in2="BackgroundImageFix" result="effect1_dropShadow"/>
<feBlend mode="normal" in="SourceGraphic" in2="effect1_dropShadow" result="shape"/>
</filter>
<filter id="filter1_d" x="10.2881" y="137.72" width="214.935" height="33.6" filterUnits="userSpaceOnUse" color-interpolation-filters="sRGB">
<feFlood flood-opacity="0" result="BackgroundImageFix"/>
<feColorMatrix in="SourceAlpha" type="matrix" values="0 0 0 0 0 0 0 0 0 0 0 0 0 0 0 0 0 0 127 0"/>
<feOffset dy="4"/>
<feGaussianBlur stdDeviation="2"/>
<feColorMatrix type="matrix" values="0 0 0 0 0 0 0 0 0 0 0 0 0 0 0 0 0 0 0.25 0"/>
<feBlend mode="normal" in2="BackgroundImageFix" result="effect1_dropShadow"/>
<feBlend mode="normal" in="SourceGraphic" in2="effect1_dropShadow" result="shape"/>
</filter>
<clipPath id="clip0">
<rect width="232" height="163" fill="white"/>
</clipPath>
</defs>
</svg>
