<svg width="51" height="51" viewBox="0 0 51 51" fill="none" xmlns="http://www.w3.org/2000/svg">
<circle cx="25.5" cy="25.5" r="25.5" fill="#FAC841"/>
<g clip-path="url(#clip0)">
<path d="M43.6098 33.8031C43.5106 33.636 42.8975 32.2946 39.9471 29.5376C36.8585 26.6507 37.2734 27.1194 40.9936 22.1276C43.2594 19.0875 44.1653 17.2309 43.8817 16.4373C43.6121 15.6807 41.9456 15.8803 41.9456 15.8803L36.4044 15.9128C36.4044 15.9128 35.9941 15.8571 35.6875 16.0404C35.3902 16.2214 35.1989 16.6392 35.1989 16.6392C35.1989 16.6392 34.3207 18.9923 33.1498 20.9928C30.6811 25.2141 29.6923 25.4369 29.2889 25.1747C28.3508 24.5643 28.5859 22.7194 28.5859 21.4105C28.5859 17.3191 29.2013 15.6134 27.385 15.1725C26.7811 15.0263 26.3386 14.9288 24.7965 14.9126C22.8189 14.8917 21.1431 14.9195 20.1958 15.386C19.5642 15.6969 19.0779 16.3908 19.3752 16.4303C19.7417 16.479 20.5715 16.6554 21.0118 17.2588C21.5811 18.0362 21.5603 19.786 21.5603 19.786C21.5603 19.786 21.8876 24.6015 20.7974 25.2002C20.0483 25.611 19.0226 24.7732 16.8213 20.9417C15.6942 18.9807 14.8413 16.8109 14.8413 16.8109C14.8413 16.8109 14.6777 16.4071 14.3849 16.1913C14.03 15.929 13.5321 15.8455 13.5321 15.8455L8.26293 15.878C8.26293 15.878 7.47232 15.9012 7.1819 16.247C6.92374 16.5556 7.16115 17.1915 7.16115 17.1915C7.16115 17.1915 11.2871 26.9083 15.9569 31.8073C20.2419 36.2978 25.1054 36.0031 25.1054 36.0031H27.309C27.309 36.0031 27.9751 35.9288 28.3139 35.5598C28.6274 35.221 28.6159 34.5851 28.6159 34.5851C28.6159 34.5851 28.5721 31.6077 29.9459 31.1691C31.2989 30.7374 33.0368 34.0467 34.8785 35.3208C36.2707 36.2839 37.3287 36.0727 37.3287 36.0727L42.2544 36.0031C42.2544 36.0031 44.8314 35.843 43.6098 33.8031Z" fill="#232323"/>
</g>
<defs>
<clipPath id="clip0">
<rect width="36.8769" height="21.1846" fill="white" transform="translate(7.06152 14.9077)"/>
</clipPath>
</defs>
</svg>
