<svg width="46" height="23" viewBox="0 0 46 23" fill="none" xmlns="http://www.w3.org/2000/svg">
<path d="M1.43747 2.87494H44.5626C45.3562 2.87494 46.0001 2.23089 46.0001 1.43747C46.0001 0.643935 45.3561 0 44.5626 0H1.43747C0.643934 0 0 0.644054 0 1.43747C0 2.23089 0.644053 2.87494 1.43747 2.87494Z" fill="white"/>
<path d="M44.5626 10.0625H1.43747C0.643934 10.0625 0 10.7066 0 11.5C0 12.2934 0.644053 12.9374 1.43747 12.9374H44.5626C45.3562 12.9374 46.0001 12.2934 46.0001 11.5C46.0001 10.7066 45.3562 10.0625 44.5626 10.0625Z" fill="#F9C840"/>
<path d="M44.5626 20.1251H15.8125C15.0189 20.1251 14.375 20.7691 14.375 21.5625C14.375 22.3561 15.0191 23 15.8125 23H44.5626C45.3561 23 46.0001 22.3559 46.0001 21.5625C46.0002 20.769 45.3561 20.1251 44.5626 20.1251Z" fill="white"/>
</svg>
