<svg width="1301" height="551" viewBox="0 0 1301 551" fill="none" xmlns="http://www.w3.org/2000/svg">
<ellipse cx="4.5" cy="107.986" rx="4.5" ry="4.4919" fill="white" fill-opacity="0.38"/>
<ellipse cx="43.5" cy="107.986" rx="4.5" ry="4.4919" fill="white" fill-opacity="0.38"/>
<ellipse cx="82.5" cy="107.986" rx="4.5" ry="4.4919" fill="white" fill-opacity="0.38"/>
<ellipse cx="121.5" cy="107.986" rx="4.5" ry="4.4919" fill="white" fill-opacity="0.38"/>
<ellipse cx="160.5" cy="107.986" rx="4.5" ry="4.4919" fill="white" fill-opacity="0.38"/>
<ellipse cx="199.5" cy="107.986" rx="4.5" ry="4.4919" fill="white" fill-opacity="0.38"/>
<ellipse cx="4.5" cy="146.916" rx="4.5" ry="4.49188" fill="white" fill-opacity="0.38"/>
<ellipse cx="43.5" cy="146.916" rx="4.5" ry="4.49188" fill="white" fill-opacity="0.38"/>
<ellipse cx="82.5" cy="146.916" rx="4.5" ry="4.49188" fill="white" fill-opacity="0.38"/>
<ellipse cx="121.5" cy="146.916" rx="4.5" ry="4.49188" fill="white" fill-opacity="0.38"/>
<ellipse cx="160.5" cy="146.916" rx="4.5" ry="4.49188" fill="white" fill-opacity="0.38"/>
<ellipse cx="199.5" cy="146.916" rx="4.5" ry="4.49188" fill="white" fill-opacity="0.38"/>
<ellipse cx="4.5" cy="179.857" rx="4.5" ry="4.49188" fill="white" fill-opacity="0.38"/>
<ellipse cx="43.5" cy="179.857" rx="4.5" ry="4.49188" fill="white" fill-opacity="0.38"/>
<ellipse cx="82.5" cy="179.857" rx="4.5" ry="4.49188" fill="white" fill-opacity="0.38"/>
<ellipse cx="121.5" cy="179.857" rx="4.5" ry="4.49188" fill="white" fill-opacity="0.38"/>
<ellipse cx="160.5" cy="179.857" rx="4.5" ry="4.49188" fill="white" fill-opacity="0.38"/>
<ellipse cx="199.5" cy="179.857" rx="4.5" ry="4.49188" fill="white" fill-opacity="0.38"/>
<ellipse cx="4.5" cy="212.797" rx="4.5" ry="4.4919" fill="white" fill-opacity="0.38"/>
<ellipse cx="43.5" cy="212.797" rx="4.5" ry="4.4919" fill="white" fill-opacity="0.38"/>
<ellipse cx="82.5" cy="212.797" rx="4.5" ry="4.4919" fill="white" fill-opacity="0.38"/>
<ellipse cx="121.5" cy="212.797" rx="4.5" ry="4.4919" fill="white" fill-opacity="0.38"/>
<ellipse cx="160.5" cy="212.797" rx="4.5" ry="4.4919" fill="white" fill-opacity="0.38"/>
<ellipse cx="199.5" cy="212.797" rx="4.5" ry="4.4919" fill="white" fill-opacity="0.38"/>
<ellipse cx="4.5" cy="245.738" rx="4.5" ry="4.49188" fill="white" fill-opacity="0.38"/>
<ellipse cx="43.5" cy="245.738" rx="4.5" ry="4.49188" fill="white" fill-opacity="0.38"/>
<ellipse cx="82.5" cy="245.738" rx="4.5" ry="4.49188" fill="white" fill-opacity="0.38"/>
<ellipse cx="121.5" cy="245.738" rx="4.5" ry="4.49188" fill="white" fill-opacity="0.38"/>
<ellipse cx="160.5" cy="245.738" rx="4.5" ry="4.49188" fill="white" fill-opacity="0.38"/>
<ellipse cx="199.5" cy="245.738" rx="4.5" ry="4.49188" fill="white" fill-opacity="0.38"/>
<ellipse cx="754.5" cy="221.781" rx="4.5" ry="4.49191" fill="white" fill-opacity="0.38"/>
<ellipse cx="793.5" cy="221.781" rx="4.5" ry="4.49191" fill="white" fill-opacity="0.38"/>
<ellipse cx="832.5" cy="221.781" rx="4.5" ry="4.49191" fill="white" fill-opacity="0.38"/>
<ellipse cx="871.5" cy="221.781" rx="4.5" ry="4.49191" fill="white" fill-opacity="0.38"/>
<ellipse cx="910.5" cy="221.781" rx="4.5" ry="4.49191" fill="white" fill-opacity="0.38"/>
<ellipse cx="949.5" cy="221.781" rx="4.5" ry="4.49191" fill="white" fill-opacity="0.38"/>
<ellipse cx="754.5" cy="260.711" rx="4.5" ry="4.4919" fill="white" fill-opacity="0.38"/>
<ellipse cx="793.5" cy="260.711" rx="4.5" ry="4.4919" fill="white" fill-opacity="0.38"/>
<ellipse cx="832.5" cy="260.711" rx="4.5" ry="4.4919" fill="white" fill-opacity="0.38"/>
<ellipse cx="871.5" cy="260.711" rx="4.5" ry="4.4919" fill="white" fill-opacity="0.38"/>
<ellipse cx="910.5" cy="260.711" rx="4.5" ry="4.4919" fill="white" fill-opacity="0.38"/>
<ellipse cx="949.5" cy="260.711" rx="4.5" ry="4.4919" fill="white" fill-opacity="0.38"/>
<ellipse cx="754.5" cy="293.651" rx="4.5" ry="4.49191" fill="white" fill-opacity="0.38"/>
<ellipse cx="793.5" cy="293.651" rx="4.5" ry="4.49191" fill="white" fill-opacity="0.38"/>
<ellipse cx="832.5" cy="293.651" rx="4.5" ry="4.49191" fill="white" fill-opacity="0.38"/>
<ellipse cx="871.5" cy="293.651" rx="4.5" ry="4.49191" fill="white" fill-opacity="0.38"/>
<ellipse cx="910.5" cy="293.651" rx="4.5" ry="4.49191" fill="white" fill-opacity="0.38"/>
<ellipse cx="949.5" cy="293.651" rx="4.5" ry="4.49191" fill="white" fill-opacity="0.38"/>
<ellipse cx="754.5" cy="326.592" rx="4.5" ry="4.4919" fill="white" fill-opacity="0.38"/>
<ellipse cx="793.5" cy="326.592" rx="4.5" ry="4.4919" fill="white" fill-opacity="0.38"/>
<ellipse cx="832.5" cy="326.592" rx="4.5" ry="4.4919" fill="white" fill-opacity="0.38"/>
<ellipse cx="871.5" cy="326.592" rx="4.5" ry="4.4919" fill="white" fill-opacity="0.38"/>
<ellipse cx="910.5" cy="326.592" rx="4.5" ry="4.4919" fill="white" fill-opacity="0.38"/>
<ellipse cx="949.5" cy="326.592" rx="4.5" ry="4.4919" fill="white" fill-opacity="0.38"/>
<ellipse cx="754.5" cy="359.533" rx="4.5" ry="4.49191" fill="white" fill-opacity="0.38"/>
<ellipse cx="793.5" cy="359.533" rx="4.5" ry="4.49191" fill="white" fill-opacity="0.38"/>
<ellipse cx="832.5" cy="359.533" rx="4.5" ry="4.49191" fill="white" fill-opacity="0.38"/>
<ellipse cx="871.5" cy="359.533" rx="4.5" ry="4.49191" fill="white" fill-opacity="0.38"/>
<ellipse cx="910.5" cy="359.533" rx="4.5" ry="4.49191" fill="white" fill-opacity="0.38"/>
<ellipse cx="949.5" cy="359.533" rx="4.5" ry="4.49191" fill="white" fill-opacity="0.38"/>
<g filter="url(#filter0_d)">
<path d="M5 136.696H20.168L36.872 186.52H37.256L53.96 136.696H68.744L45.704 199H27.368L5 136.696ZM75.278 135.736H89.294V147.064H75.278V135.736ZM75.278 152.536H89.294V199H75.278V152.536ZM125.22 199.96C122.852 199.96 120.868 199.864 119.268 199.672C117.668 199.48 116.068 199.096 114.468 198.52C112.676 197.944 111.204 197.144 110.052 196.12C108.964 195.096 108.068 193.688 107.364 191.896C106.596 190.04 106.212 187.896 106.212 185.464V161.176H96.8038V152.536H106.212V139.096H120.228V152.536H132.996V161.176H120.228V183.064C120.228 185.304 120.42 187 120.804 188.152C121.188 189.24 121.924 190.04 123.012 190.552C124.1 191 125.764 191.224 128.004 191.224C128.9 191.224 130.564 191.064 132.996 190.744V199.48C129.988 199.8 127.396 199.96 125.22 199.96ZM154.234 198.616L135.706 152.536H150.97L161.434 185.368L170.938 152.536H185.434L159.994 218.968H145.786L154.234 198.616ZM205.515 199.96C201.163 199.96 197.899 199.576 195.723 198.808C193.611 197.976 192.107 196.536 191.211 194.488C190.379 192.376 189.963 189.24 189.963 185.08C189.963 181.368 190.411 178.456 191.307 176.344C192.267 174.232 193.771 172.728 195.819 171.832C197.931 170.872 200.811 170.392 204.459 170.392H220.203V167.224C220.203 165.24 219.915 163.768 219.339 162.808C218.827 161.848 217.835 161.176 216.363 160.792C214.955 160.408 212.811 160.216 209.931 160.216C205.963 160.216 200.523 160.6 193.611 161.368V152.536C198.667 151.896 204.587 151.576 211.371 151.576C217.323 151.576 221.899 152.024 225.099 152.92C228.363 153.816 230.699 155.352 232.107 157.528C233.515 159.704 234.219 162.872 234.219 167.032V199H220.491V194.776C219.403 196.632 217.931 197.944 216.075 198.712C214.219 199.544 210.699 199.96 205.515 199.96ZM210.987 191.224C213.803 191.224 215.819 191.128 217.035 190.936C217.931 190.808 218.539 190.616 218.859 190.36C219.243 190.104 219.563 189.688 219.819 189.112C220.075 188.664 220.203 187.992 220.203 187.096V178.072H210.603C208.427 178.072 206.891 178.232 205.995 178.552C205.099 178.808 204.491 179.384 204.171 180.28C203.851 181.112 203.691 182.616 203.691 184.792C203.691 186.904 203.851 188.376 204.171 189.208C204.491 190.04 205.099 190.584 205.995 190.84C206.955 191.096 208.619 191.224 210.987 191.224ZM246.55 152.536H260.374V158.2C261.462 153.784 266.422 151.576 275.254 151.576C281.206 151.576 285.366 152.664 287.734 154.84C290.166 156.952 291.382 160.312 291.382 164.92V199H277.366V166.744C277.366 164.952 277.174 163.608 276.79 162.712C276.47 161.816 275.766 161.176 274.678 160.792C273.654 160.408 272.054 160.216 269.878 160.216C267.126 160.216 265.11 160.408 263.83 160.792C262.55 161.112 261.686 161.72 261.238 162.616C260.79 163.512 260.566 164.888 260.566 166.744V199H246.55V152.536Z" fill="white"/>
</g>
<g filter="url(#filter1_d)">
<path d="M731.72 238.696H756.68C762.76 238.696 767.56 239.112 771.08 239.944C774.664 240.776 777.256 242.248 778.856 244.36C780.52 246.408 781.352 249.288 781.352 253V264.808C781.352 268.904 780.456 272.104 778.664 274.408C776.936 276.712 774.152 278.344 770.312 279.304C766.536 280.264 761.416 280.744 754.952 280.744H746.696V301H731.72V238.696ZM756.2 270.472C760.104 270.472 762.856 270.024 764.456 269.128C766.056 268.168 766.856 266.568 766.856 264.328V254.344C766.856 252.296 766.088 250.952 764.552 250.312C763.08 249.672 760.232 249.352 756.008 249.352H746.696V270.472H756.2ZM791.332 254.536H804.676V262.696C804.676 261.224 805.284 259.784 806.5 258.376C807.716 256.968 809.252 255.816 811.108 254.92C813.028 254.024 814.916 253.576 816.772 253.576H821.764V265.192H816.964C812.996 265.192 810.052 265.8 808.132 267.016C806.276 268.232 805.348 270.248 805.348 273.064V301H791.332V254.536ZM851.76 301.96C848.88 301.96 846.512 301.864 844.656 301.672C842.8 301.48 840.816 301.096 838.704 300.52C836.4 299.88 834.544 298.984 833.136 297.832C831.728 296.616 830.544 294.92 829.584 292.744C828.624 290.632 828.144 288.072 828.144 285.064V271.336C828.144 268.264 828.624 265.576 829.584 263.272C830.544 260.968 831.792 259.176 833.328 257.896C834.672 256.808 836.432 255.912 838.608 255.208C840.848 254.44 843.024 253.96 845.136 253.768C847.568 253.64 849.776 253.576 851.76 253.576C854.704 253.576 857.04 253.672 858.768 253.864C860.56 253.992 862.512 254.376 864.624 255.016C866.928 255.72 868.784 256.68 870.192 257.896C871.664 259.112 872.912 260.84 873.936 263.08C874.896 265.384 875.376 268.136 875.376 271.336V285.064C875.376 287.944 874.896 290.472 873.936 292.648C873.04 294.824 871.856 296.52 870.384 297.736C869.104 298.824 867.344 299.72 865.104 300.424C862.928 301.064 860.784 301.48 858.672 301.672C856.752 301.864 854.448 301.96 851.76 301.96ZM851.76 293.224C854.384 293.224 856.368 293.032 857.712 292.648C859.056 292.2 859.984 291.528 860.496 290.632C861.072 289.736 861.36 288.424 861.36 286.696V269.128C861.36 266.568 860.688 264.776 859.344 263.752C858 262.728 855.472 262.216 851.76 262.216C848.048 262.216 845.52 262.728 844.176 263.752C842.832 264.776 842.16 266.568 842.16 269.128V286.696C842.16 288.424 842.416 289.736 842.928 290.632C843.504 291.528 844.464 292.2 845.808 292.648C847.152 293.032 849.136 293.224 851.76 293.224ZM904.156 301.96C898.652 301.96 894.588 301.576 891.964 300.808C889.34 299.976 887.516 298.44 886.492 296.2C885.468 293.96 884.956 290.472 884.956 285.736V267.592C884.956 262.472 886.396 258.856 889.276 256.744C892.22 254.632 896.956 253.576 903.484 253.576C906.556 253.576 908.956 253.768 910.684 254.152C912.476 254.472 913.916 255.08 915.004 255.976C916.092 256.808 917.212 258.056 918.364 259.72V233.8H932.38V301H918.844V295.72C917.692 297.576 916.636 298.888 915.676 299.656C914.78 300.36 913.5 300.904 911.836 301.288C910.108 301.736 907.548 301.96 904.156 301.96ZM907.708 293.224C910.844 293.224 913.148 293.064 914.62 292.744C916.092 292.424 917.084 291.848 917.596 291.016C918.108 290.12 918.364 288.808 918.364 287.08V268.36C918.364 266.76 918.076 265.544 917.5 264.712C916.988 263.816 916.028 263.176 914.62 262.792C913.276 262.408 911.228 262.216 908.476 262.216C905.532 262.216 903.42 262.408 902.14 262.792C900.86 263.112 899.996 263.72 899.548 264.616C899.164 265.448 898.972 266.856 898.972 268.84V286.6C898.972 288.392 899.164 289.768 899.548 290.728C899.996 291.624 900.828 292.264 902.044 292.648C903.26 293.032 905.148 293.224 907.708 293.224ZM957.859 301.96C953.507 301.96 950.243 301.576 948.067 300.808C945.955 299.976 944.451 298.536 943.555 296.488C942.723 294.376 942.307 291.24 942.307 287.08C942.307 283.368 942.755 280.456 943.651 278.344C944.611 276.232 946.115 274.728 948.163 273.832C950.275 272.872 953.155 272.392 956.803 272.392H972.547V269.224C972.547 267.24 972.259 265.768 971.683 264.808C971.171 263.848 970.179 263.176 968.707 262.792C967.299 262.408 965.155 262.216 962.275 262.216C958.307 262.216 952.867 262.6 945.955 263.368V254.536C951.011 253.896 956.931 253.576 963.715 253.576C969.667 253.576 974.243 254.024 977.443 254.92C980.707 255.816 983.043 257.352 984.451 259.528C985.859 261.704 986.562 264.872 986.562 269.032V301H972.835V296.776C971.747 298.632 970.275 299.944 968.419 300.712C966.563 301.544 963.043 301.96 957.859 301.96ZM963.331 293.224C966.147 293.224 968.163 293.128 969.379 292.936C970.275 292.808 970.883 292.616 971.203 292.36C971.587 292.104 971.907 291.688 972.163 291.112C972.419 290.664 972.547 289.992 972.547 289.096V280.072H962.947C960.771 280.072 959.235 280.232 958.339 280.552C957.443 280.808 956.835 281.384 956.515 282.28C956.195 283.112 956.035 284.616 956.035 286.792C956.035 288.904 956.195 290.376 956.515 291.208C956.835 292.04 957.443 292.584 958.339 292.84C959.299 293.096 960.963 293.224 963.331 293.224ZM998.894 254.536H1012.72V260.2C1013.81 255.784 1018.77 253.576 1027.6 253.576C1033.55 253.576 1037.71 254.664 1040.08 256.84C1042.51 258.952 1043.73 262.312 1043.73 266.92V301H1029.71V268.744C1029.71 266.952 1029.52 265.608 1029.13 264.712C1028.81 263.816 1028.11 263.176 1027.02 262.792C1026 262.408 1024.4 262.216 1022.22 262.216C1019.47 262.216 1017.45 262.408 1016.17 262.792C1014.89 263.112 1014.03 263.72 1013.58 264.616C1013.13 265.512 1012.91 266.888 1012.91 268.744V301H998.894V254.536ZM1079.22 301.96C1076.85 301.96 1074.87 301.864 1073.27 301.672C1071.67 301.48 1070.07 301.096 1068.47 300.52C1066.68 299.944 1065.2 299.144 1064.05 298.12C1062.96 297.096 1062.07 295.688 1061.36 293.896C1060.6 292.04 1060.21 289.896 1060.21 287.464V263.176H1050.8V254.536H1060.21V241.096H1074.23V254.536H1087V263.176H1074.23V285.064C1074.23 287.304 1074.42 289 1074.8 290.152C1075.19 291.24 1075.92 292.04 1077.01 292.552C1078.1 293 1079.76 293.224 1082 293.224C1082.9 293.224 1084.56 293.064 1087 292.744V301.48C1083.99 301.8 1081.4 301.96 1079.22 301.96ZM1108.23 301.96C1103.88 301.96 1100.62 301.576 1098.44 300.808C1096.33 299.976 1094.83 298.536 1093.93 296.488C1093.1 294.376 1092.68 291.24 1092.68 287.08C1092.68 283.368 1093.13 280.456 1094.03 278.344C1094.99 276.232 1096.49 274.728 1098.54 273.832C1100.65 272.872 1103.53 272.392 1107.18 272.392H1122.92V269.224C1122.92 267.24 1122.63 265.768 1122.06 264.808C1121.55 263.848 1120.55 263.176 1119.08 262.792C1117.67 262.408 1115.53 262.216 1112.65 262.216C1108.68 262.216 1103.24 262.6 1096.33 263.368V254.536C1101.39 253.896 1107.31 253.576 1114.09 253.576C1120.04 253.576 1124.62 254.024 1127.82 254.92C1131.08 255.816 1133.42 257.352 1134.83 259.528C1136.23 261.704 1136.94 264.872 1136.94 269.032V301H1123.21V296.776C1122.12 298.632 1120.65 299.944 1118.79 300.712C1116.94 301.544 1113.42 301.96 1108.23 301.96ZM1113.71 293.224C1116.52 293.224 1118.54 293.128 1119.75 292.936C1120.65 292.808 1121.26 292.616 1121.58 292.36C1121.96 292.104 1122.28 291.688 1122.54 291.112C1122.79 290.664 1122.92 289.992 1122.92 289.096V280.072H1113.32C1111.15 280.072 1109.61 280.232 1108.71 280.552C1107.82 280.808 1107.21 281.384 1106.89 282.28C1106.57 283.112 1106.41 284.616 1106.41 286.792C1106.41 288.904 1106.57 290.376 1106.89 291.208C1107.21 292.04 1107.82 292.584 1108.71 292.84C1109.67 293.096 1111.34 293.224 1113.71 293.224ZM1171.93 301.96C1169.49 301.96 1167.57 301.896 1166.17 301.768C1164.76 301.704 1163.03 301.544 1160.98 301.288C1158.93 301.032 1157.24 300.584 1155.89 299.944C1154.61 299.304 1153.27 298.344 1151.86 297.064C1149.24 294.888 1147.93 291.176 1147.93 285.928V270.472C1147.93 266.248 1148.89 262.728 1150.81 259.912C1151.51 258.888 1152.53 257.96 1153.88 257.128C1155.29 256.232 1156.69 255.528 1158.1 255.016C1159.25 254.632 1160.79 254.312 1162.71 254.056C1164.63 253.8 1166.33 253.64 1167.8 253.576H1172.89C1176.47 253.576 1181.17 254.152 1187 255.304V264.52C1180.41 262.984 1175.35 262.216 1171.83 262.216C1165.37 262.216 1162.13 264.392 1162.13 268.744V285.832C1162.13 290.76 1165.69 293.224 1172.79 293.224C1176.25 293.224 1181.21 292.52 1187.67 291.112V300.328C1181.85 301.416 1176.6 301.96 1171.93 301.96ZM1195.58 233.8H1209.6V301H1195.58V233.8ZM1210.17 274.888L1225.44 254.536H1241.47L1225.34 274.792L1242.81 301H1226.97L1210.17 274.888ZM1264.8 301.96C1259.81 301.96 1253.7 301.48 1246.47 300.52V291.208C1255.36 292.552 1261.54 293.224 1264.99 293.224C1267.94 293.224 1270.11 292.936 1271.52 292.36C1272.93 291.784 1273.63 290.728 1273.63 289.192V286.312C1273.63 284.712 1273.19 283.592 1272.29 282.952C1271.39 282.248 1269.63 281.896 1267.01 281.896H1260.96C1256.03 281.896 1252.23 280.936 1249.54 279.016C1246.85 277.032 1245.51 274.152 1245.51 270.376V264.712C1245.51 260.68 1247.43 257.832 1251.27 256.168C1255.11 254.44 1260.9 253.576 1268.64 253.576C1271.71 253.576 1277.22 253.864 1285.15 254.44V263.368C1275.17 262.6 1269.54 262.216 1268.26 262.216C1264.48 262.216 1262.02 262.472 1260.87 262.984C1259.84 263.56 1259.33 264.616 1259.33 266.152V268.648C1259.33 269.48 1259.75 270.216 1260.58 270.856C1261.41 271.432 1262.63 271.72 1264.23 271.72H1270.37C1281.76 271.72 1287.46 275.432 1287.46 282.856V288.712C1287.46 290.952 1287.04 292.904 1286.21 294.568C1285.38 296.232 1284.29 297.544 1282.95 298.504C1281.67 299.4 1280 300.104 1277.95 300.616C1275.97 301.128 1273.89 301.48 1271.71 301.672C1269.73 301.864 1267.43 301.96 1264.8 301.96Z" fill="white"/>
</g>
<g filter="url(#filter2_d)">
<path d="M981.824 359.315C980.736 359.315 979.92 359.219 979.376 359.027C978.848 358.819 978.472 358.459 978.248 357.947C978.04 357.419 977.936 356.635 977.936 355.595C977.936 354.667 978.048 353.939 978.272 353.411C978.512 352.883 978.888 352.507 979.4 352.283C979.928 352.043 980.648 351.923 981.56 351.923H985.496V351.131C985.496 350.635 985.424 350.267 985.28 350.027C985.152 349.787 984.904 349.619 984.536 349.523C984.184 349.427 983.648 349.379 982.928 349.379C981.936 349.379 980.576 349.475 978.848 349.667V347.459C980.112 347.299 981.592 347.219 983.288 347.219C984.776 347.219 985.92 347.331 986.72 347.555C987.536 347.779 988.12 348.163 988.472 348.707C988.824 349.251 989 350.043 989 351.083V359.075H985.568V358.019C985.296 358.483 984.928 358.811 984.464 359.003C984 359.211 983.12 359.315 981.824 359.315ZM983.192 357.131C983.896 357.131 984.4 357.107 984.704 357.059C984.928 357.027 985.08 356.979 985.16 356.915C985.256 356.851 985.336 356.747 985.4 356.603C985.464 356.491 985.496 356.323 985.496 356.099V353.843H983.096C982.552 353.843 982.168 353.883 981.944 353.963C981.72 354.027 981.568 354.171 981.488 354.395C981.408 354.603 981.368 354.979 981.368 355.523C981.368 356.051 981.408 356.419 981.488 356.627C981.568 356.835 981.72 356.971 981.944 357.035C982.184 357.099 982.6 357.131 983.192 357.131ZM1002.32 364.355C1000.43 364.355 999.03 364.299 998.118 364.187V361.835C999.622 362.043 1001.02 362.147 1002.32 362.147C1003.5 362.147 1004.35 361.955 1004.86 361.571C1005.37 361.187 1005.63 360.547 1005.63 359.651V357.779C1005.34 358.195 1005.06 358.515 1004.79 358.739C1004.52 358.947 1004.16 359.091 1003.71 359.171C1003.28 359.267 1002.68 359.315 1001.91 359.315C1000.77 359.315 999.87 359.211 999.198 359.003C998.526 358.779 998.038 358.419 997.734 357.923C997.43 357.411 997.278 356.707 997.278 355.811V351.275C997.278 350.203 997.414 349.379 997.686 348.803C997.974 348.227 998.454 347.819 999.126 347.579C999.814 347.339 1000.8 347.219 1002.08 347.219C1002.91 347.219 1003.55 347.267 1004 347.363C1004.43 347.459 1004.76 347.603 1004.98 347.795C1005.21 347.987 1005.46 348.315 1005.75 348.779V347.459H1009.13V359.699C1009.13 361.347 1008.57 362.531 1007.43 363.251C1006.31 363.987 1004.61 364.355 1002.32 364.355ZM1003.16 357.131C1003.85 357.131 1004.36 357.083 1004.69 356.987C1005.05 356.891 1005.29 356.739 1005.41 356.531C1005.56 356.307 1005.63 355.995 1005.63 355.595V350.915C1005.63 350.483 1005.57 350.163 1005.44 349.955C1005.31 349.731 1005.06 349.579 1004.69 349.499C1004.33 349.419 1003.75 349.379 1002.97 349.379C1002.33 349.379 1001.85 349.427 1001.55 349.523C1001.25 349.619 1001.04 349.787 1000.93 350.027C1000.83 350.251 1000.78 350.587 1000.78 351.035V355.475C1000.78 355.971 1000.83 356.331 1000.93 356.555C1001.04 356.763 1001.25 356.915 1001.57 357.011C1001.89 357.091 1002.42 357.131 1003.16 357.131ZM1015.5 359.315C1014.42 359.315 1013.6 359.219 1013.06 359.027C1012.53 358.819 1012.15 358.459 1011.93 357.947C1011.72 357.419 1011.62 356.635 1011.62 355.595C1011.62 354.667 1011.73 353.939 1011.95 353.411C1012.19 352.883 1012.57 352.507 1013.08 352.283C1013.61 352.043 1014.33 351.923 1015.24 351.923H1019.18V351.131C1019.18 350.635 1019.1 350.267 1018.96 350.027C1018.83 349.787 1018.58 349.619 1018.22 349.523C1017.86 349.427 1017.33 349.379 1016.61 349.379C1015.62 349.379 1014.26 349.475 1012.53 349.667V347.459C1013.79 347.299 1015.27 347.219 1016.97 347.219C1018.46 347.219 1019.6 347.331 1020.4 347.555C1021.22 347.779 1021.8 348.163 1022.15 348.707C1022.5 349.251 1022.68 350.043 1022.68 351.083V359.075H1019.25V358.019C1018.98 358.483 1018.61 358.811 1018.14 359.003C1017.68 359.211 1016.8 359.315 1015.5 359.315ZM1016.87 357.131C1017.58 357.131 1018.08 357.107 1018.38 357.059C1018.61 357.027 1018.76 356.979 1018.84 356.915C1018.94 356.851 1019.02 356.747 1019.08 356.603C1019.14 356.491 1019.18 356.323 1019.18 356.099V353.843H1016.78C1016.23 353.843 1015.85 353.883 1015.62 353.963C1015.4 354.027 1015.25 354.171 1015.17 354.395C1015.09 354.603 1015.05 354.979 1015.05 355.523C1015.05 356.051 1015.09 356.419 1015.17 356.627C1015.25 356.835 1015.4 356.971 1015.62 357.035C1015.86 357.099 1016.28 357.131 1016.87 357.131ZM1025.76 347.459H1029.27V348.875C1029.49 347.771 1030.63 347.219 1032.7 347.219C1033.79 347.219 1034.61 347.363 1035.17 347.651C1035.73 347.923 1036.11 348.355 1036.3 348.947C1036.49 348.339 1036.86 347.899 1037.4 347.627C1037.96 347.355 1038.8 347.219 1039.92 347.219C1040.93 347.219 1041.71 347.339 1042.25 347.579C1042.79 347.803 1043.17 348.155 1043.38 348.635C1043.6 349.115 1043.71 349.755 1043.71 350.555V359.075H1040.21V351.035C1040.21 350.523 1040.18 350.163 1040.11 349.955C1040.05 349.731 1039.91 349.579 1039.68 349.499C1039.47 349.419 1039.11 349.379 1038.58 349.379C1037.92 349.379 1037.45 349.419 1037.16 349.499C1036.89 349.579 1036.71 349.731 1036.61 349.955C1036.53 350.163 1036.49 350.523 1036.49 351.035V359.075H1032.99V351.035C1032.99 350.523 1032.95 350.163 1032.89 349.955C1032.83 349.731 1032.68 349.579 1032.46 349.499C1032.25 349.419 1031.88 349.379 1031.35 349.379C1030.7 349.379 1030.23 349.419 1029.94 349.499C1029.67 349.579 1029.48 349.731 1029.39 349.955C1029.31 350.163 1029.27 350.523 1029.27 351.035V359.075H1025.76V347.459ZM1052.62 359.315C1048.51 359.315 1046.45 358.059 1046.45 355.547V351.371C1046.45 349.915 1046.91 348.859 1047.84 348.203C1048.79 347.547 1050.23 347.219 1052.19 347.219C1054.03 347.219 1055.37 347.539 1056.22 348.179C1057.08 348.803 1057.51 349.867 1057.51 351.371V354.203H1049.98V355.259C1049.98 355.931 1050.22 356.411 1050.7 356.699C1051.18 356.987 1052.04 357.131 1053.29 357.131C1054.44 357.131 1055.74 356.963 1057.18 356.627V358.859C1055.75 359.163 1054.23 359.315 1052.62 359.315ZM1054.18 352.211V350.531C1054.18 350.147 1054.02 349.859 1053.7 349.667C1053.39 349.475 1052.87 349.379 1052.14 349.379C1051.29 349.379 1050.72 349.475 1050.43 349.667C1050.13 349.875 1049.98 350.163 1049.98 350.531V352.211H1054.18ZM1059.62 350.867H1067.01V353.555H1059.62V350.867ZM1073.96 359.315C1072.58 359.315 1071.57 359.219 1070.91 359.027C1070.26 358.819 1069.8 358.435 1069.54 357.875C1069.29 357.315 1069.16 356.443 1069.16 355.259V350.723C1069.16 349.443 1069.52 348.539 1070.24 348.011C1070.98 347.483 1072.16 347.219 1073.79 347.219C1074.56 347.219 1075.16 347.267 1075.59 347.363C1076.04 347.443 1076.4 347.595 1076.67 347.819C1076.94 348.027 1077.22 348.339 1077.51 348.755V342.275H1081.02V359.075H1077.63V357.755C1077.34 358.219 1077.08 358.547 1076.84 358.739C1076.62 358.915 1076.3 359.051 1075.88 359.147C1075.45 359.259 1074.81 359.315 1073.96 359.315ZM1074.85 357.131C1075.63 357.131 1076.21 357.091 1076.58 357.011C1076.94 356.931 1077.19 356.787 1077.32 356.579C1077.45 356.355 1077.51 356.027 1077.51 355.595V350.915C1077.51 350.515 1077.44 350.211 1077.3 350.003C1077.17 349.779 1076.93 349.619 1076.58 349.523C1076.24 349.427 1075.73 349.379 1075.04 349.379C1074.3 349.379 1073.78 349.427 1073.46 349.523C1073.14 349.603 1072.92 349.755 1072.81 349.979C1072.71 350.187 1072.66 350.539 1072.66 351.035V355.475C1072.66 355.923 1072.71 356.267 1072.81 356.507C1072.92 356.731 1073.13 356.891 1073.43 356.987C1073.74 357.083 1074.21 357.131 1074.85 357.131ZM1089.93 359.315C1085.82 359.315 1083.76 358.059 1083.76 355.547V351.371C1083.76 349.915 1084.23 348.859 1085.15 348.203C1086.1 347.547 1087.55 347.219 1089.5 347.219C1091.34 347.219 1092.68 347.539 1093.53 348.179C1094.39 348.803 1094.83 349.867 1094.83 351.371V354.203H1087.29V355.259C1087.29 355.931 1087.53 356.411 1088.01 356.699C1088.49 356.987 1089.35 357.131 1090.6 357.131C1091.75 357.131 1093.05 356.963 1094.49 356.627V358.859C1093.07 359.163 1091.55 359.315 1089.93 359.315ZM1091.49 352.211V350.531C1091.49 350.147 1091.33 349.859 1091.01 349.667C1090.71 349.475 1090.19 349.379 1089.45 349.379C1088.6 349.379 1088.03 349.475 1087.75 349.667C1087.44 349.875 1087.29 350.163 1087.29 350.531V352.211H1091.49ZM1095.97 347.459H1099.69L1102.23 355.499L1104.68 347.459H1108.21L1103.94 359.075H1100.38L1095.97 347.459ZM1115.57 359.315C1111.46 359.315 1109.4 358.059 1109.4 355.547V351.371C1109.4 349.915 1109.87 348.859 1110.8 348.203C1111.74 347.547 1113.19 347.219 1115.14 347.219C1116.98 347.219 1118.32 347.539 1119.17 348.179C1120.04 348.803 1120.47 349.867 1120.47 351.371V354.203H1112.93V355.259C1112.93 355.931 1113.17 356.411 1113.65 356.699C1114.13 356.987 1115 357.131 1116.24 357.131C1117.4 357.131 1118.69 356.963 1120.13 356.627V358.859C1118.71 359.163 1117.19 359.315 1115.57 359.315ZM1117.13 352.211V350.531C1117.13 350.147 1116.97 349.859 1116.65 349.667C1116.35 349.475 1115.83 349.379 1115.09 349.379C1114.24 349.379 1113.68 349.475 1113.39 349.667C1113.08 349.875 1112.93 350.163 1112.93 350.531V352.211H1117.13ZM1123.24 342.275H1126.75V359.075H1123.24V342.275ZM1135.49 359.315C1134.77 359.315 1134.17 359.291 1133.71 359.243C1133.25 359.195 1132.75 359.099 1132.22 358.955C1131.65 358.795 1131.18 358.571 1130.83 358.283C1130.48 357.979 1130.18 357.555 1129.94 357.011C1129.7 356.483 1129.58 355.843 1129.58 355.091V351.659C1129.58 350.891 1129.7 350.219 1129.94 349.643C1130.18 349.067 1130.49 348.619 1130.88 348.299C1131.21 348.027 1131.65 347.803 1132.2 347.627C1132.76 347.435 1133.3 347.315 1133.83 347.267C1134.44 347.235 1134.99 347.219 1135.49 347.219C1136.22 347.219 1136.81 347.243 1137.24 347.291C1137.69 347.323 1138.17 347.419 1138.7 347.579C1139.28 347.755 1139.74 347.995 1140.09 348.299C1140.46 348.603 1140.77 349.035 1141.03 349.595C1141.27 350.171 1141.39 350.859 1141.39 351.659V355.091C1141.39 355.811 1141.27 356.443 1141.03 356.987C1140.81 357.531 1140.51 357.955 1140.14 358.259C1139.82 358.531 1139.38 358.755 1138.82 358.931C1138.28 359.091 1137.74 359.195 1137.21 359.243C1136.73 359.291 1136.16 359.315 1135.49 359.315ZM1135.49 357.131C1136.14 357.131 1136.64 357.083 1136.97 356.987C1137.31 356.875 1137.54 356.707 1137.67 356.483C1137.81 356.259 1137.89 355.931 1137.89 355.499V351.107C1137.89 350.467 1137.72 350.019 1137.38 349.763C1137.05 349.507 1136.41 349.379 1135.49 349.379C1134.56 349.379 1133.93 349.507 1133.59 349.763C1133.25 350.019 1133.09 350.467 1133.09 351.107V355.499C1133.09 355.931 1133.15 356.259 1133.28 356.483C1133.42 356.707 1133.66 356.875 1134 356.987C1134.33 357.083 1134.83 357.131 1135.49 357.131ZM1144.12 347.459H1147.43V348.611C1147.64 348.099 1148.05 347.739 1148.66 347.531C1149.27 347.323 1150.17 347.219 1151.37 347.219C1152.38 347.219 1153.19 347.299 1153.79 347.459C1154.42 347.619 1154.89 347.875 1155.21 348.227C1155.51 348.579 1155.72 348.971 1155.83 349.403C1155.95 349.819 1156 350.395 1156 351.131V354.947C1156 356.099 1155.83 356.987 1155.5 357.611C1155.16 358.235 1154.64 358.675 1153.94 358.931C1153.25 359.187 1152.31 359.315 1151.11 359.315C1149.95 359.315 1149.12 359.219 1148.61 359.027C1148.1 358.835 1147.77 358.459 1147.63 357.899V364.067H1144.12V347.459ZM1150.03 357.131C1150.71 357.131 1151.23 357.083 1151.59 356.987C1151.94 356.891 1152.18 356.723 1152.31 356.483C1152.43 356.243 1152.5 355.883 1152.5 355.403V351.107C1152.5 350.579 1152.44 350.203 1152.33 349.979C1152.22 349.739 1151.99 349.579 1151.66 349.499C1151.32 349.419 1150.77 349.379 1150 349.379C1149.35 349.379 1148.84 349.435 1148.49 349.547C1148.15 349.659 1147.92 349.835 1147.79 350.075C1147.68 350.315 1147.63 350.659 1147.63 351.107V355.403C1147.63 355.883 1147.68 356.243 1147.79 356.483C1147.92 356.723 1148.15 356.891 1148.49 356.987C1148.83 357.083 1149.34 357.131 1150.03 357.131ZM1158.84 343.259H1162.35V346.091H1158.84V343.259ZM1158.84 347.459H1162.35V359.075H1158.84V347.459ZM1165.52 347.459H1168.98V348.875C1169.25 347.771 1170.49 347.219 1172.7 347.219C1174.18 347.219 1175.22 347.491 1175.82 348.035C1176.42 348.563 1176.73 349.403 1176.73 350.555V359.075H1173.22V351.011C1173.22 350.563 1173.18 350.227 1173.08 350.003C1173 349.779 1172.82 349.619 1172.55 349.523C1172.3 349.427 1171.9 349.379 1171.35 349.379C1170.66 349.379 1170.16 349.427 1169.84 349.523C1169.52 349.603 1169.3 349.755 1169.19 349.979C1169.08 350.203 1169.02 350.547 1169.02 351.011V359.075H1165.52V347.459ZM1184.5 364.355C1182.61 364.355 1181.21 364.299 1180.3 364.187V361.835C1181.8 362.043 1183.2 362.147 1184.5 362.147C1185.68 362.147 1186.53 361.955 1187.04 361.571C1187.55 361.187 1187.81 360.547 1187.81 359.651V357.779C1187.52 358.195 1187.24 358.515 1186.97 358.739C1186.7 358.947 1186.34 359.091 1185.89 359.171C1185.46 359.267 1184.86 359.315 1184.09 359.315C1182.95 359.315 1182.05 359.211 1181.38 359.003C1180.71 358.779 1180.22 358.419 1179.91 357.923C1179.61 357.411 1179.46 356.707 1179.46 355.811V351.275C1179.46 350.203 1179.59 349.379 1179.87 348.803C1180.15 348.227 1180.63 347.819 1181.31 347.579C1181.99 347.339 1182.98 347.219 1184.26 347.219C1185.09 347.219 1185.73 347.267 1186.18 347.363C1186.61 347.459 1186.94 347.603 1187.16 347.795C1187.39 347.987 1187.64 348.315 1187.93 348.779V347.459H1191.31V359.699C1191.31 361.347 1190.75 362.531 1189.61 363.251C1188.49 363.987 1186.79 364.355 1184.5 364.355ZM1185.34 357.131C1186.03 357.131 1186.54 357.083 1186.87 356.987C1187.23 356.891 1187.47 356.739 1187.59 356.531C1187.74 356.307 1187.81 355.995 1187.81 355.595V350.915C1187.81 350.483 1187.75 350.163 1187.62 349.955C1187.49 349.731 1187.24 349.579 1186.87 349.499C1186.51 349.419 1185.93 349.379 1185.15 349.379C1184.51 349.379 1184.03 349.427 1183.73 349.523C1183.43 349.619 1183.22 349.787 1183.11 350.027C1183.01 350.251 1182.96 350.587 1182.96 351.035V355.475C1182.96 355.971 1183.01 356.331 1183.11 356.555C1183.22 356.763 1183.43 356.915 1183.75 357.011C1184.07 357.091 1184.6 357.131 1185.34 357.131ZM1204.27 359.315C1203.02 359.315 1201.49 359.195 1199.69 358.955V356.627C1201.91 356.963 1203.45 357.131 1204.32 357.131C1205.05 357.131 1205.6 357.059 1205.95 356.915C1206.3 356.771 1206.48 356.507 1206.48 356.123V355.403C1206.48 355.003 1206.37 354.723 1206.14 354.563C1205.92 354.387 1205.48 354.299 1204.82 354.299H1203.31C1202.08 354.299 1201.13 354.059 1200.45 353.579C1199.78 353.083 1199.45 352.363 1199.45 351.419V350.003C1199.45 348.995 1199.93 348.283 1200.89 347.867C1201.85 347.435 1203.29 347.219 1205.23 347.219C1206 347.219 1207.37 347.291 1209.36 347.435V349.667C1206.86 349.475 1205.45 349.379 1205.13 349.379C1204.19 349.379 1203.57 349.443 1203.29 349.571C1203.03 349.715 1202.9 349.979 1202.9 350.363V350.987C1202.9 351.195 1203.01 351.379 1203.21 351.539C1203.42 351.683 1203.73 351.755 1204.13 351.755H1205.66C1208.51 351.755 1209.93 352.683 1209.93 354.539V356.003C1209.93 356.563 1209.83 357.051 1209.62 357.467C1209.41 357.883 1209.14 358.211 1208.81 358.451C1208.49 358.675 1208.07 358.851 1207.56 358.979C1207.06 359.107 1206.54 359.195 1206 359.243C1205.5 359.291 1204.93 359.315 1204.27 359.315ZM1218.34 359.315C1217.75 359.315 1217.26 359.291 1216.86 359.243C1216.46 359.195 1216.06 359.099 1215.66 358.955C1215.21 358.811 1214.84 358.611 1214.55 358.355C1214.28 358.099 1214.06 357.747 1213.88 357.299C1213.69 356.835 1213.59 356.299 1213.59 355.691V349.619H1211.24V347.459H1213.59V344.099H1217.1V347.459H1220.29V349.619H1217.1V355.091C1217.1 355.651 1217.14 356.075 1217.24 356.363C1217.34 356.635 1217.52 356.835 1217.79 356.963C1218.06 357.075 1218.48 357.131 1219.04 357.131C1219.26 357.131 1219.68 357.091 1220.29 357.011V359.195C1219.54 359.275 1218.89 359.315 1218.34 359.315ZM1226.34 359.315C1224.85 359.315 1223.81 359.051 1223.2 358.523C1222.61 357.979 1222.31 357.131 1222.31 355.979V347.459H1225.81V355.499C1225.81 355.947 1225.85 356.283 1225.93 356.507C1226.03 356.731 1226.21 356.891 1226.46 356.987C1226.73 357.083 1227.14 357.131 1227.69 357.131C1228.37 357.131 1228.88 357.091 1229.2 357.011C1229.52 356.915 1229.73 356.755 1229.85 356.531C1229.96 356.307 1230.01 355.963 1230.01 355.499V347.459H1233.52V359.075H1230.06V357.659C1229.81 358.763 1228.57 359.315 1226.34 359.315ZM1241.05 359.315C1239.67 359.315 1238.65 359.219 1238 359.027C1237.34 358.819 1236.89 358.435 1236.63 357.875C1236.37 357.315 1236.25 356.443 1236.25 355.259V350.723C1236.25 349.443 1236.61 348.539 1237.33 348.011C1238.06 347.483 1239.25 347.219 1240.88 347.219C1241.65 347.219 1242.25 347.267 1242.68 347.363C1243.13 347.443 1243.49 347.595 1243.76 347.819C1244.03 348.027 1244.31 348.339 1244.6 348.755V342.275H1248.1V359.075H1244.72V357.755C1244.43 358.219 1244.17 358.547 1243.93 358.739C1243.7 358.915 1243.38 359.051 1242.97 359.147C1242.53 359.259 1241.89 359.315 1241.05 359.315ZM1241.93 357.131C1242.72 357.131 1243.29 357.091 1243.66 357.011C1244.03 356.931 1244.28 356.787 1244.41 356.579C1244.53 356.355 1244.6 356.027 1244.6 355.595V350.915C1244.6 350.515 1244.53 350.211 1244.38 350.003C1244.25 349.779 1244.01 349.619 1243.66 349.523C1243.33 349.427 1242.81 349.379 1242.13 349.379C1241.39 349.379 1240.86 349.427 1240.54 349.523C1240.22 349.603 1240.01 349.755 1239.89 349.979C1239.8 350.187 1239.75 350.539 1239.75 351.035V355.475C1239.75 355.923 1239.8 356.267 1239.89 356.507C1240.01 356.731 1240.21 356.891 1240.52 356.987C1240.82 357.083 1241.29 357.131 1241.93 357.131ZM1251.28 343.259H1254.78V346.091H1251.28V343.259ZM1251.28 347.459H1254.78V359.075H1251.28V347.459ZM1263.53 359.315C1262.81 359.315 1262.21 359.291 1261.75 359.243C1261.29 359.195 1260.79 359.099 1260.26 358.955C1259.69 358.795 1259.22 358.571 1258.87 358.283C1258.52 357.979 1258.22 357.555 1257.98 357.011C1257.74 356.483 1257.62 355.843 1257.62 355.091V351.659C1257.62 350.891 1257.74 350.219 1257.98 349.643C1258.22 349.067 1258.53 348.619 1258.92 348.299C1259.25 348.027 1259.69 347.803 1260.24 347.627C1260.8 347.435 1261.34 347.315 1261.87 347.267C1262.48 347.235 1263.03 347.219 1263.53 347.219C1264.26 347.219 1264.85 347.243 1265.28 347.291C1265.73 347.323 1266.21 347.419 1266.74 347.579C1267.32 347.755 1267.78 347.995 1268.13 348.299C1268.5 348.603 1268.81 349.035 1269.07 349.595C1269.31 350.171 1269.43 350.859 1269.43 351.659V355.091C1269.43 355.811 1269.31 356.443 1269.07 356.987C1268.85 357.531 1268.55 357.955 1268.18 358.259C1267.86 358.531 1267.42 358.755 1266.86 358.931C1266.32 359.091 1265.78 359.195 1265.25 359.243C1264.77 359.291 1264.2 359.315 1263.53 359.315ZM1263.53 357.131C1264.18 357.131 1264.68 357.083 1265.01 356.987C1265.35 356.875 1265.58 356.707 1265.71 356.483C1265.85 356.259 1265.93 355.931 1265.93 355.499V351.107C1265.93 350.467 1265.76 350.019 1265.42 349.763C1265.09 349.507 1264.45 349.379 1263.53 349.379C1262.6 349.379 1261.97 349.507 1261.63 349.763C1261.29 350.019 1261.13 350.467 1261.13 351.107V355.499C1261.13 355.931 1261.19 356.259 1261.32 356.483C1261.46 356.707 1261.7 356.875 1262.04 356.987C1262.37 357.083 1262.87 357.131 1263.53 357.131Z" fill="white"/>
</g>
<g filter="url(#filter3_d)">
<path d="M302.52 511.636H319.116V515.632H308.136V520.924H311.628C313.788 520.924 315.516 521.056 316.812 521.32C318.108 521.56 319.092 522.04 319.764 522.76C320.46 523.456 320.808 524.464 320.808 525.784V529.456C320.808 533.152 317.664 535 311.376 535H302.52V511.636ZM311.124 531.004C312.54 531.004 313.572 530.812 314.22 530.428C314.868 530.02 315.192 529.408 315.192 528.592V526.828C315.192 526.084 314.88 525.58 314.256 525.316C313.632 525.052 312.612 524.92 311.196 524.92H308.1V531.004H311.124ZM332.91 535.36C331.83 535.36 330.942 535.324 330.246 535.252C329.55 535.18 328.806 535.036 328.014 534.82C327.15 534.58 326.454 534.244 325.926 533.812C325.398 533.356 324.954 532.72 324.594 531.904C324.234 531.112 324.054 530.152 324.054 529.024V523.876C324.054 522.724 324.234 521.716 324.594 520.852C324.954 519.988 325.422 519.316 325.998 518.836C326.502 518.428 327.162 518.092 327.978 517.828C328.818 517.54 329.634 517.36 330.426 517.288C331.338 517.24 332.166 517.216 332.91 517.216C334.014 517.216 334.89 517.252 335.538 517.324C336.21 517.372 336.942 517.516 337.734 517.756C338.598 518.02 339.294 518.38 339.822 518.836C340.374 519.292 340.842 519.94 341.226 520.78C341.586 521.644 341.766 522.676 341.766 523.876V529.024C341.766 530.104 341.586 531.052 341.226 531.868C340.89 532.684 340.446 533.32 339.894 533.776C339.414 534.184 338.754 534.52 337.914 534.784C337.098 535.024 336.294 535.18 335.502 535.252C334.782 535.324 333.918 535.36 332.91 535.36ZM332.91 532.084C333.894 532.084 334.638 532.012 335.142 531.868C335.646 531.7 335.994 531.448 336.186 531.112C336.402 530.776 336.51 530.284 336.51 529.636V523.048C336.51 522.088 336.258 521.416 335.754 521.032C335.25 520.648 334.302 520.456 332.91 520.456C331.518 520.456 330.57 520.648 330.066 521.032C329.562 521.416 329.31 522.088 329.31 523.048V529.636C329.31 530.284 329.406 530.776 329.598 531.112C329.814 531.448 330.174 531.7 330.678 531.868C331.182 532.012 331.926 532.084 332.91 532.084ZM346.655 535.288C346.127 535.288 345.503 535.216 344.783 535.072V531.184C345.071 531.232 345.371 531.256 345.683 531.256C346.571 531.256 347.291 530.98 347.843 530.428C348.395 529.876 348.815 528.796 349.103 527.188C349.415 525.58 349.571 523.252 349.571 520.204V517.576H363.215V535H357.959V520.924H353.963V521.356C353.963 525.076 353.639 527.956 352.991 529.996C352.343 532.036 351.491 533.428 350.435 534.172C349.379 534.916 348.119 535.288 346.655 535.288ZM367.835 517.576H373.091V523.408H375.107C377.531 523.408 379.331 523.54 380.507 523.804C381.707 524.068 382.523 524.536 382.955 525.208C383.411 525.88 383.639 526.912 383.639 528.304V530.356C383.639 532.012 382.955 533.2 381.587 533.92C380.219 534.64 378.095 535 375.215 535H367.835V517.576ZM374.963 531.724C375.923 531.724 376.631 531.664 377.087 531.544C377.543 531.4 377.843 531.184 377.987 530.896C378.131 530.608 378.203 530.176 378.203 529.6V528.628C378.203 528.1 378.107 527.704 377.915 527.44C377.747 527.152 377.435 526.96 376.979 526.864C376.547 526.768 375.899 526.72 375.035 526.72H373.019V531.724H374.963ZM387.593 517.576H392.849V531.652H397.637V517.576H402.893V531.652H407.681V517.576H412.937V535H387.593V517.576ZM426.294 535.36C420.126 535.36 417.042 533.476 417.042 529.708V523.444C417.042 521.26 417.738 519.676 419.13 518.692C420.546 517.708 422.718 517.216 425.646 517.216C428.406 517.216 430.422 517.696 431.694 518.656C432.99 519.592 433.638 521.188 433.638 523.444V527.692H422.334V529.276C422.334 530.284 422.694 531.004 423.414 531.436C424.134 531.868 425.43 532.084 427.302 532.084C429.03 532.084 430.974 531.832 433.134 531.328V534.676C430.998 535.132 428.718 535.36 426.294 535.36ZM428.634 524.704V522.184C428.634 521.608 428.394 521.176 427.914 520.888C427.458 520.6 426.678 520.456 425.574 520.456C424.302 520.456 423.45 520.6 423.018 520.888C422.562 521.2 422.334 521.632 422.334 522.184V524.704H428.634ZM437.692 530.032H443.164L439.78 539.032H436.036L437.692 530.032ZM465.459 527.296C464.979 528.976 463.203 529.816 460.131 529.816C458.067 529.816 456.615 529.384 455.775 528.52C454.935 527.632 454.515 526.3 454.515 524.524V517.576H459.627V523.732C459.627 524.452 459.675 525.004 459.771 525.388C459.867 525.772 460.083 526.06 460.419 526.252C460.779 526.444 461.331 526.54 462.075 526.54C463.107 526.54 463.863 526.444 464.343 526.252C464.823 526.036 465.123 525.736 465.243 525.352C465.387 524.968 465.459 524.392 465.459 523.624V517.576H470.715V535H465.459V527.296ZM484.056 535.36C477.888 535.36 474.804 533.476 474.804 529.708V523.444C474.804 521.26 475.5 519.676 476.892 518.692C478.308 517.708 480.48 517.216 483.408 517.216C486.168 517.216 488.184 517.696 489.456 518.656C490.752 519.592 491.4 521.188 491.4 523.444V527.692H480.096V529.276C480.096 530.284 480.456 531.004 481.176 531.436C481.896 531.868 483.192 532.084 485.064 532.084C486.792 532.084 488.736 531.832 490.896 531.328V534.676C488.76 535.132 486.48 535.36 484.056 535.36ZM486.396 524.704V522.184C486.396 521.608 486.156 521.176 485.676 520.888C485.22 520.6 484.44 520.456 483.336 520.456C482.064 520.456 481.212 520.6 480.78 520.888C480.324 521.2 480.096 521.632 480.096 522.184V524.704H486.396ZM495.417 517.576H502.113L506.361 529.6L510.861 517.576H517.197V535H512.445V523.768H512.229L508.017 535H504.309L500.241 523.768H500.025V535H495.417V517.576ZM530.117 517.576H547.001V535H541.745V520.924H535.373V535H530.117V517.576ZM551.597 517.576H556.565V519.304C556.877 518.536 557.489 517.996 558.401 517.684C559.313 517.372 560.669 517.216 562.469 517.216C563.981 517.216 565.193 517.336 566.105 517.576C567.041 517.816 567.749 518.2 568.229 518.728C568.685 519.256 568.997 519.844 569.165 520.492C569.333 521.116 569.417 521.98 569.417 523.084V528.808C569.417 530.536 569.165 531.868 568.661 532.804C568.157 533.74 567.377 534.4 566.321 534.784C565.289 535.168 563.873 535.36 562.073 535.36C560.345 535.36 559.097 535.216 558.329 534.928C557.561 534.64 557.069 534.076 556.853 533.236V542.488H551.597V517.576ZM560.453 532.084C561.485 532.084 562.265 532.012 562.793 531.868C563.321 531.724 563.681 531.472 563.873 531.112C564.065 530.752 564.161 530.212 564.161 529.492V523.048C564.161 522.256 564.077 521.692 563.909 521.356C563.741 520.996 563.405 520.756 562.901 520.636C562.397 520.516 561.569 520.456 560.417 520.456C559.433 520.456 558.677 520.54 558.149 520.708C557.645 520.876 557.297 521.14 557.105 521.5C556.937 521.86 556.853 522.376 556.853 523.048V529.492C556.853 530.212 556.937 530.752 557.105 531.112C557.297 531.472 557.645 531.724 558.149 531.868C558.653 532.012 559.421 532.084 560.453 532.084ZM581.886 535.36C580.806 535.36 579.918 535.324 579.222 535.252C578.526 535.18 577.782 535.036 576.99 534.82C576.126 534.58 575.43 534.244 574.902 533.812C574.374 533.356 573.93 532.72 573.57 531.904C573.21 531.112 573.03 530.152 573.03 529.024V523.876C573.03 522.724 573.21 521.716 573.57 520.852C573.93 519.988 574.398 519.316 574.974 518.836C575.478 518.428 576.138 518.092 576.954 517.828C577.794 517.54 578.61 517.36 579.402 517.288C580.314 517.24 581.142 517.216 581.886 517.216C582.99 517.216 583.866 517.252 584.514 517.324C585.186 517.372 585.918 517.516 586.71 517.756C587.574 518.02 588.27 518.38 588.798 518.836C589.35 519.292 589.818 519.94 590.202 520.78C590.562 521.644 590.742 522.676 590.742 523.876V529.024C590.742 530.104 590.562 531.052 590.202 531.868C589.866 532.684 589.422 533.32 588.87 533.776C588.39 534.184 587.73 534.52 586.89 534.784C586.074 535.024 585.27 535.18 584.478 535.252C583.758 535.324 582.894 535.36 581.886 535.36ZM581.886 532.084C582.87 532.084 583.614 532.012 584.118 531.868C584.622 531.7 584.97 531.448 585.162 531.112C585.378 530.776 585.486 530.284 585.486 529.636V523.048C585.486 522.088 585.234 521.416 584.73 521.032C584.226 520.648 583.278 520.456 581.886 520.456C580.494 520.456 579.546 520.648 579.042 521.032C578.538 521.416 578.286 522.088 578.286 523.048V529.636C578.286 530.284 578.382 530.776 578.574 531.112C578.79 531.448 579.15 531.7 579.654 531.868C580.158 532.012 580.902 532.084 581.886 532.084ZM603.335 535.36C602.423 535.36 601.703 535.336 601.175 535.288C600.647 535.264 599.999 535.204 599.231 535.108C598.463 535.012 597.827 534.844 597.323 534.604C596.843 534.364 596.339 534.004 595.811 533.524C594.827 532.708 594.335 531.316 594.335 529.348V523.552C594.335 521.968 594.695 520.648 595.415 519.592C595.679 519.208 596.063 518.86 596.567 518.548C597.095 518.212 597.623 517.948 598.151 517.756C598.583 517.612 599.159 517.492 599.879 517.396C600.599 517.3 601.235 517.24 601.787 517.216H603.695C605.039 517.216 606.803 517.432 608.987 517.864V521.32C606.515 520.744 604.619 520.456 603.299 520.456C600.875 520.456 599.663 521.272 599.663 522.904V529.312C599.663 531.16 600.995 532.084 603.659 532.084C604.955 532.084 606.815 531.82 609.239 531.292V534.748C607.055 535.156 605.087 535.36 603.335 535.36ZM616.382 521.032H610.622V517.576H627.398V521.032H621.638V535H616.382V521.032ZM638.769 535.36C637.689 535.36 636.801 535.324 636.105 535.252C635.409 535.18 634.665 535.036 633.873 534.82C633.009 534.58 632.313 534.244 631.785 533.812C631.257 533.356 630.813 532.72 630.453 531.904C630.093 531.112 629.913 530.152 629.913 529.024V523.876C629.913 522.724 630.093 521.716 630.453 520.852C630.813 519.988 631.281 519.316 631.857 518.836C632.361 518.428 633.021 518.092 633.837 517.828C634.677 517.54 635.493 517.36 636.285 517.288C637.197 517.24 638.025 517.216 638.769 517.216C639.873 517.216 640.749 517.252 641.397 517.324C642.069 517.372 642.801 517.516 643.593 517.756C644.457 518.02 645.153 518.38 645.681 518.836C646.233 519.292 646.701 519.94 647.085 520.78C647.445 521.644 647.625 522.676 647.625 523.876V529.024C647.625 530.104 647.445 531.052 647.085 531.868C646.749 532.684 646.305 533.32 645.753 533.776C645.273 534.184 644.613 534.52 643.773 534.784C642.957 535.024 642.153 535.18 641.361 535.252C640.641 535.324 639.777 535.36 638.769 535.36ZM638.769 532.084C639.753 532.084 640.497 532.012 641.001 531.868C641.505 531.7 641.853 531.448 642.045 531.112C642.261 530.776 642.369 530.284 642.369 529.636V523.048C642.369 522.088 642.117 521.416 641.613 521.032C641.109 520.648 640.161 520.456 638.769 520.456C637.377 520.456 636.429 520.648 635.925 521.032C635.421 521.416 635.169 522.088 635.169 523.048V529.636C635.169 530.284 635.265 530.776 635.457 531.112C635.673 531.448 636.033 531.7 636.537 531.868C637.041 532.012 637.785 532.084 638.769 532.084ZM664.951 535.36C663.319 535.36 662.095 535.216 661.279 534.928C660.487 534.616 659.923 534.076 659.587 533.308C659.275 532.516 659.119 531.34 659.119 529.78C659.119 528.388 659.287 527.296 659.623 526.504C659.983 525.712 660.547 525.148 661.315 524.812C662.107 524.452 663.187 524.272 664.555 524.272H670.459V523.084C670.459 522.34 670.351 521.788 670.135 521.428C669.943 521.068 669.571 520.816 669.019 520.672C668.491 520.528 667.687 520.456 666.607 520.456C665.119 520.456 663.079 520.6 660.487 520.888V517.576C662.383 517.336 664.603 517.216 667.147 517.216C669.379 517.216 671.095 517.384 672.295 517.72C673.519 518.056 674.395 518.632 674.923 519.448C675.451 520.264 675.715 521.452 675.715 523.012V535H670.567V533.416C670.159 534.112 669.607 534.604 668.911 534.892C668.215 535.204 666.895 535.36 664.951 535.36ZM667.003 532.084C668.059 532.084 668.815 532.048 669.271 531.976C669.607 531.928 669.835 531.856 669.955 531.76C670.099 531.664 670.219 531.508 670.315 531.292C670.411 531.124 670.459 530.872 670.459 530.536V527.152H666.859C666.043 527.152 665.467 527.212 665.131 527.332C664.795 527.428 664.567 527.644 664.447 527.98C664.327 528.292 664.267 528.856 664.267 529.672C664.267 530.464 664.327 531.016 664.447 531.328C664.567 531.64 664.795 531.844 665.131 531.94C665.491 532.036 666.115 532.084 667.003 532.084ZM680.339 517.576H685.595V524.272H692.183V517.576H697.439V535H692.183V527.728H685.595V535H680.339V517.576ZM710.383 535.36C709.303 535.36 708.415 535.324 707.719 535.252C707.023 535.18 706.279 535.036 705.487 534.82C704.623 534.58 703.927 534.244 703.399 533.812C702.871 533.356 702.427 532.72 702.067 531.904C701.707 531.112 701.527 530.152 701.527 529.024V523.876C701.527 522.724 701.707 521.716 702.067 520.852C702.427 519.988 702.895 519.316 703.471 518.836C703.975 518.428 704.635 518.092 705.451 517.828C706.291 517.54 707.107 517.36 707.899 517.288C708.811 517.24 709.639 517.216 710.383 517.216C711.487 517.216 712.363 517.252 713.011 517.324C713.683 517.372 714.415 517.516 715.207 517.756C716.071 518.02 716.767 518.38 717.295 518.836C717.847 519.292 718.315 519.94 718.699 520.78C719.059 521.644 719.239 522.676 719.239 523.876V529.024C719.239 530.104 719.059 531.052 718.699 531.868C718.363 532.684 717.919 533.32 717.367 533.776C716.887 534.184 716.227 534.52 715.387 534.784C714.571 535.024 713.767 535.18 712.975 535.252C712.255 535.324 711.391 535.36 710.383 535.36ZM710.383 532.084C711.367 532.084 712.111 532.012 712.615 531.868C713.119 531.7 713.467 531.448 713.659 531.112C713.875 530.776 713.983 530.284 713.983 529.636V523.048C713.983 522.088 713.731 521.416 713.227 521.032C712.723 520.648 711.775 520.456 710.383 520.456C708.991 520.456 708.043 520.648 707.539 521.032C707.035 521.416 706.783 522.088 706.783 523.048V529.636C706.783 530.284 706.879 530.776 707.071 531.112C707.287 531.448 707.647 531.7 708.151 531.868C708.655 532.012 709.399 532.084 710.383 532.084ZM723.335 517.576H728.591V524.272H735.179V517.576H740.435V535H735.179V527.728H728.591V535H723.335V517.576ZM753.523 535.36C752.611 535.36 751.891 535.336 751.363 535.288C750.835 535.264 750.187 535.204 749.419 535.108C748.651 535.012 748.015 534.844 747.511 534.604C747.031 534.364 746.527 534.004 745.999 533.524C745.015 532.708 744.523 531.316 744.523 529.348V523.552C744.523 521.968 744.883 520.648 745.603 519.592C745.867 519.208 746.251 518.86 746.755 518.548C747.283 518.212 747.811 517.948 748.339 517.756C748.771 517.612 749.347 517.492 750.067 517.396C750.787 517.3 751.423 517.24 751.975 517.216H753.883C755.227 517.216 756.991 517.432 759.175 517.864V521.32C756.703 520.744 754.807 520.456 753.487 520.456C751.063 520.456 749.851 521.272 749.851 522.904V529.312C749.851 531.16 751.183 532.084 753.847 532.084C755.143 532.084 757.003 531.82 759.427 531.292V534.748C757.243 535.156 755.275 535.36 753.523 535.36ZM762.394 517.576H767.65V523.408H769.45C771.874 523.408 773.65 523.54 774.778 523.804C775.93 524.068 776.71 524.536 777.118 525.208C777.55 525.856 777.766 526.888 777.766 528.304V530.356C777.766 532.036 777.106 533.236 775.786 533.956C774.49 534.652 772.414 535 769.558 535H762.394V517.576ZM780.61 517.576H785.866V535H780.61V517.576ZM769.306 531.724C770.266 531.724 770.974 531.664 771.43 531.544C771.886 531.4 772.186 531.184 772.33 530.896C772.474 530.608 772.546 530.176 772.546 529.6V528.628C772.546 528.1 772.45 527.704 772.258 527.44C772.09 527.152 771.778 526.96 771.322 526.864C770.89 526.768 770.242 526.72 769.378 526.72H767.578V531.724H769.306ZM790.34 511.636H796.64L795.092 528.232H791.888L790.34 511.636ZM790.7 530.032H796.316V535H790.7V530.032Z" fill="white"/>
</g>
<g clip-path="url(#clip0)">
<path d="M311.727 4.38939L463.415 261.405L491.955 178.998L515.612 165.121L421.831 4.38939H311.727Z" stroke="white" stroke-width="6" stroke-miterlimit="10"/>
<path d="M509.079 98.2185L798.585 4.38939L629.773 293.216L575.948 209.983L483.817 293.216L515.613 196.933L679.518 94.1359L545.096 156.956L509.079 98.2185Z" stroke="white" stroke-width="6" stroke-miterlimit="10"/>
<path d="M569.438 254.042L611.022 325.027L557.196 419.682L495.233 318.514L569.438 254.042Z" stroke="white" stroke-width="6" stroke-miterlimit="10"/>
</g>
<g clip-path="url(#clip1)">
<g filter="url(#filter4_d)">
<path d="M334 22.3946L457.624 234.003L483.326 164.948L501.594 154.964L422.847 20L334 22.3946Z" fill="#FFBB00"/>
</g>
<g filter="url(#filter5_d)">
<path d="M527.148 100.047L555.162 150.194L678.057 95.5129L535.977 182.455L502 272.615L585.875 198.711L632.405 276L778 20L527.148 100.047Z" fill="white"/>
</g>
<g filter="url(#filter6_d)">
<path d="M568.371 247L511 297.401L557.769 383.412L603.458 305.666L568.371 247Z" fill="#FFBB00"/>
</g>
</g>
<defs>
<filter id="filter0_d" x="1" y="135.736" width="294.382" height="91.232" filterUnits="userSpaceOnUse" color-interpolation-filters="sRGB">
<feFlood flood-opacity="0" result="BackgroundImageFix"/>
<feColorMatrix in="SourceAlpha" type="matrix" values="0 0 0 0 0 0 0 0 0 0 0 0 0 0 0 0 0 0 127 0"/>
<feOffset dy="4"/>
<feGaussianBlur stdDeviation="2"/>
<feColorMatrix type="matrix" values="0 0 0 0 1 0 0 0 0 0.6 0 0 0 0 0 0 0 0 1 0"/>
<feBlend mode="normal" in2="BackgroundImageFix" result="effect1_dropShadow"/>
<feBlend mode="normal" in="SourceGraphic" in2="effect1_dropShadow" result="shape"/>
</filter>
<filter id="filter1_d" x="727.72" y="233.8" width="563.737" height="76.16" filterUnits="userSpaceOnUse" color-interpolation-filters="sRGB">
<feFlood flood-opacity="0" result="BackgroundImageFix"/>
<feColorMatrix in="SourceAlpha" type="matrix" values="0 0 0 0 0 0 0 0 0 0 0 0 0 0 0 0 0 0 127 0"/>
<feOffset dy="4"/>
<feGaussianBlur stdDeviation="2"/>
<feColorMatrix type="matrix" values="0 0 0 0 1 0 0 0 0 0.6 0 0 0 0 0 0 0 0 1 0"/>
<feBlend mode="normal" in2="BackgroundImageFix" result="effect1_dropShadow"/>
<feBlend mode="normal" in="SourceGraphic" in2="effect1_dropShadow" result="shape"/>
</filter>
<filter id="filter2_d" x="973.936" y="342.275" width="299.494" height="30.08" filterUnits="userSpaceOnUse" color-interpolation-filters="sRGB">
<feFlood flood-opacity="0" result="BackgroundImageFix"/>
<feColorMatrix in="SourceAlpha" type="matrix" values="0 0 0 0 0 0 0 0 0 0 0 0 0 0 0 0 0 0 127 0"/>
<feOffset dy="4"/>
<feGaussianBlur stdDeviation="2"/>
<feColorMatrix type="matrix" values="0 0 0 0 1 0 0 0 0 0.6 0 0 0 0 0 0 0 0 1 0"/>
<feBlend mode="normal" in2="BackgroundImageFix" result="effect1_dropShadow"/>
<feBlend mode="normal" in="SourceGraphic" in2="effect1_dropShadow" result="shape"/>
</filter>
<filter id="filter3_d" x="298.52" y="511.636" width="502.12" height="38.852" filterUnits="userSpaceOnUse" color-interpolation-filters="sRGB">
<feFlood flood-opacity="0" result="BackgroundImageFix"/>
<feColorMatrix in="SourceAlpha" type="matrix" values="0 0 0 0 0 0 0 0 0 0 0 0 0 0 0 0 0 0 127 0"/>
<feOffset dy="4"/>
<feGaussianBlur stdDeviation="2"/>
<feColorMatrix type="matrix" values="0 0 0 0 1 0 0 0 0 0.6 0 0 0 0 0 0 0 0 1 0"/>
<feBlend mode="normal" in2="BackgroundImageFix" result="effect1_dropShadow"/>
<feBlend mode="normal" in="SourceGraphic" in2="effect1_dropShadow" result="shape"/>
</filter>
<filter id="filter4_d" x="330" y="20" width="175.594" height="222.003" filterUnits="userSpaceOnUse" color-interpolation-filters="sRGB">
<feFlood flood-opacity="0" result="BackgroundImageFix"/>
<feColorMatrix in="SourceAlpha" type="matrix" values="0 0 0 0 0 0 0 0 0 0 0 0 0 0 0 0 0 0 127 0"/>
<feOffset dy="4"/>
<feGaussianBlur stdDeviation="2"/>
<feColorMatrix type="matrix" values="0 0 0 0 0 0 0 0 0 0 0 0 0 0 0 0 0 0 0.5 0"/>
<feBlend mode="normal" in2="BackgroundImageFix" result="effect1_dropShadow"/>
<feBlend mode="normal" in="SourceGraphic" in2="effect1_dropShadow" result="shape"/>
</filter>
<filter id="filter5_d" x="498" y="20" width="284" height="264" filterUnits="userSpaceOnUse" color-interpolation-filters="sRGB">
<feFlood flood-opacity="0" result="BackgroundImageFix"/>
<feColorMatrix in="SourceAlpha" type="matrix" values="0 0 0 0 0 0 0 0 0 0 0 0 0 0 0 0 0 0 127 0"/>
<feOffset dy="4"/>
<feGaussianBlur stdDeviation="2"/>
<feColorMatrix type="matrix" values="0 0 0 0 0 0 0 0 0 0 0 0 0 0 0 0 0 0 0.5 0"/>
<feBlend mode="normal" in2="BackgroundImageFix" result="effect1_dropShadow"/>
<feBlend mode="normal" in="SourceGraphic" in2="effect1_dropShadow" result="shape"/>
</filter>
<filter id="filter6_d" x="507" y="247" width="100.458" height="144.412" filterUnits="userSpaceOnUse" color-interpolation-filters="sRGB">
<feFlood flood-opacity="0" result="BackgroundImageFix"/>
<feColorMatrix in="SourceAlpha" type="matrix" values="0 0 0 0 0 0 0 0 0 0 0 0 0 0 0 0 0 0 127 0"/>
<feOffset dy="4"/>
<feGaussianBlur stdDeviation="2"/>
<feColorMatrix type="matrix" values="0 0 0 0 0 0 0 0 0 0 0 0 0 0 0 0 0 0 0.5 0"/>
<feBlend mode="normal" in2="BackgroundImageFix" result="effect1_dropShadow"/>
<feBlend mode="normal" in="SourceGraphic" in2="effect1_dropShadow" result="shape"/>
</filter>
<clipPath id="clip0">
<rect width="497" height="423.954" fill="white" transform="translate(308)"/>
</clipPath>
<clipPath id="clip1">
<rect width="506" height="441" fill="white" transform="translate(293)"/>
</clipPath>
</defs>
</svg>
